<svg width="1360" height="345" viewBox="0 0 1360 345" fill="none" xmlns="http://www.w3.org/2000/svg">
<g clip-path="url(#clip0_1280_16892)">
<path d="M312.461 144.208C320.168 117.249 289.208 93.1762 289.208 93.1762L291.764 90.2081C291.764 90.2081 326.97 115.353 324.605 141.459L312.461 144.208Z" fill="#E77913"/>
<path d="M274.491 119.268C271.776 116.988 270.009 113.593 269.389 110.033C268.782 106.479 269.426 102.418 271.486 99.0747C273.517 95.7098 276.755 93.3338 280.078 92.1358C283.433 90.9383 286.914 90.6797 290.32 91.5501C287.669 93.8491 285.192 95.6295 283.111 97.4943C281.019 99.3391 279.387 101.174 278.174 103.154C276.961 105.133 276.101 107.362 275.528 110.029C274.943 112.698 274.799 115.804 274.491 119.268ZM311.547 76.2318L304.462 79.1478C302.403 80.0264 300.66 80.9189 299.179 81.9252C297.693 82.9304 296.379 84.063 295.002 85.6683C293.6 87.2602 292.285 89.2983 290.483 91.6907C289.033 89.0746 288.693 86.0839 289.405 83.0952C290.106 80.124 292.091 77.2 294.812 75.4263C297.513 73.6068 300.687 72.9075 303.591 73.0724C306.506 73.2741 309.314 74.1934 311.547 76.2318Z" fill="#58C268"/>
<path d="M290.488 91.6904C289.611 95.7857 289.177 98.9966 289.132 101.795C289.086 104.588 289.429 106.822 289.981 109.204C290.54 111.574 291.396 114.154 292.495 117.101C293.564 120.07 294.909 123.268 295.931 127.388C291.706 126.967 288.125 125.207 285.062 122.588C282.052 119.958 279.558 116.288 278.538 111.877C277.463 107.504 278.165 102.524 280.438 98.7646C282.709 95.0249 286.232 92.2665 290.488 91.6904ZM325.526 96.0171C321.536 95.5846 318.404 94.9423 315.473 94.3363C312.843 93.7573 310.205 93.2132 307.56 92.704C305.125 92.261 302.867 91.8783 300.222 91.6884C297.558 91.4597 294.545 91.568 290.488 91.6904C291.457 87.7522 294.225 84.6433 297.832 82.7618C301.443 80.8786 305.821 80.3809 309.733 81.158C313.542 81.8911 317.073 83.6648 319.935 86.2825C322.65 88.8348 324.824 91.9912 325.526 96.0171Z" fill="#2A933A"/>
<path d="M290.488 91.6906C292.797 104.016 307.844 119.555 307.844 119.555L290.488 91.6906ZM290.488 91.6906C293.403 93.903 295.47 95.5719 297.387 97.445C299.232 99.2428 300.891 101.222 302.339 103.352C303.831 105.55 305.059 107.916 305.998 110.402C306.965 113.036 307.73 115.876 307.844 119.555C304.15 119.22 301.309 117.859 298.801 116.194C296.351 114.512 294.243 112.38 292.59 109.91C290.878 107.38 289.702 104.526 289.133 101.525C288.612 98.4405 288.619 94.9185 290.488 91.6906Z" fill="#58C268"/>
</g>
<g clip-path="url(#clip1_1280_16892)">
<path d="M442.507 187.13C470.488 185.318 482.741 148.064 482.741 148.064L486.396 149.472C486.396 149.472 474.562 191.085 449.182 197.641L442.507 187.13Z" fill="#EE8A2C"/>
<path d="M453.212 142.984C454.446 139.661 457.049 136.855 460.193 135.073C463.335 133.306 467.376 132.546 471.218 133.361C475.07 134.142 478.397 136.391 480.643 139.118C482.899 141.874 484.314 145.065 484.64 148.565C481.583 146.842 479.074 145.109 476.617 143.777C474.176 142.427 471.899 141.508 469.627 141.031C467.355 140.555 464.967 140.495 462.262 140.853C459.551 141.2 456.578 142.109 453.212 142.984ZM506.207 163.401L501.077 157.71C499.557 156.067 498.131 154.726 496.685 153.669C495.238 152.608 493.729 151.752 491.754 150.995C489.784 150.211 487.422 149.658 484.563 148.766C486.538 146.52 489.24 145.194 492.295 144.859C495.328 144.519 498.75 145.405 501.336 147.371C503.958 149.302 505.684 152.055 506.506 154.846C507.296 157.659 507.376 160.613 506.207 163.401Z" fill="#2A933A"/>
<path d="M484.566 148.766C480.414 149.318 477.245 149.989 474.594 150.889C471.948 151.785 469.96 152.86 467.903 154.181C465.859 155.504 463.717 157.179 461.312 159.205C458.875 161.211 456.317 163.553 452.781 165.902C451.755 161.781 452.208 157.817 453.644 154.052C455.108 150.332 457.725 146.749 461.535 144.305C465.292 141.821 470.218 140.806 474.523 141.682C478.809 142.563 482.592 144.952 484.566 148.766ZM492.28 183.217C491.345 179.314 490.896 176.149 490.481 173.185C490.141 170.513 489.766 167.846 489.355 165.184C488.953 162.741 488.554 160.487 487.843 157.932C487.162 155.346 486.046 152.545 484.566 148.766C488.601 148.354 492.459 149.914 495.445 152.678C498.433 155.445 500.375 159.4 500.959 163.346C501.55 167.179 501.068 171.101 499.566 174.677C498.076 178.092 495.835 181.202 492.28 183.217Z" fill="#58C268"/>
<path d="M484.568 148.766C473.738 155.087 464.167 174.485 464.167 174.485L484.568 148.766ZM484.568 148.766C483.465 152.255 482.589 154.763 481.47 157.199C480.398 159.541 479.093 161.769 477.574 163.849C476.006 165.994 474.191 167.947 472.166 169.667C470.011 171.464 467.594 173.139 464.167 174.485C463.24 170.893 463.566 167.76 464.29 164.838C465.049 161.965 466.348 159.263 468.118 156.875C469.925 154.412 472.216 152.344 474.851 150.798C477.581 149.27 480.899 148.091 484.568 148.766Z" fill="#2A933A"/>
</g>
<path d="M434.713 298.833C432.604 299.493 430.361 298.318 429.701 296.209L412.369 240.781L286.821 280.039C284.713 280.699 282.469 279.524 281.81 277.415L272.966 249.134C272.708 248.307 272.725 247.419 273.014 246.603L346.276 40.0158C346.697 38.8297 347.651 37.9107 348.852 37.5351L389.998 24.669C392.107 24.0097 394.35 25.1845 395.01 27.293L445.172 187.714L473.227 178.941C475.336 178.282 477.579 179.457 478.239 181.565L488.045 212.927C488.705 215.035 487.53 217.279 485.421 217.938L457.366 226.711L474.698 282.139C475.358 284.248 474.183 286.491 472.074 287.151L434.713 298.833ZM315.806 228.166L400.175 201.784L365 89.2918L315.806 228.166Z" fill="#4C9EFF"/>
<g clip-path="url(#clip2_1280_16892)">
<path d="M918.723 189.551C937.533 189.632 947.457 165.266 947.457 165.266L949.838 166.378C949.838 166.378 939.993 193.68 922.705 196.894L918.723 189.551Z" fill="#EE8A2C"/>
<path d="M927.938 160.501C928.917 158.334 930.789 156.576 932.975 155.53C935.16 154.492 937.9 154.17 940.433 154.893C942.975 155.594 945.098 157.253 946.475 159.182C947.857 161.131 948.657 163.332 948.713 165.69C946.747 164.395 945.147 163.119 943.565 162.114C941.994 161.098 940.512 160.377 939.014 159.953C937.515 159.529 935.92 159.379 934.093 159.493C932.263 159.6 930.231 160.071 927.938 160.501ZM962.461 176.616L959.291 172.57C958.35 171.4 957.457 170.437 956.538 169.663C955.619 168.886 954.649 168.243 953.362 167.645C952.079 167.029 950.524 166.55 948.652 165.821C950.078 164.409 951.948 163.646 954.007 163.564C956.053 163.476 958.302 164.227 959.942 165.662C961.607 167.076 962.635 168.999 963.056 170.905C963.455 172.824 963.372 174.804 962.461 176.616Z" fill="#2A933A"/>
<path d="M948.654 165.821C945.85 165.998 943.697 166.301 941.882 166.78C940.07 167.258 938.689 167.885 937.251 168.674C935.822 169.465 934.311 170.487 932.608 171.732C930.884 172.961 929.064 174.411 926.589 175.819C926.093 173.014 926.579 170.382 927.714 167.928C928.866 165.507 930.783 163.229 933.447 161.77C936.075 160.281 939.419 159.83 942.26 160.615C945.088 161.403 947.509 163.177 948.654 165.821ZM952.223 189.234C951.778 186.579 951.624 184.44 951.483 182.437C951.379 180.633 951.251 178.831 951.1 177.03C950.943 175.377 950.781 173.85 950.423 172.107C950.087 170.345 949.469 168.418 948.654 165.821C951.373 165.732 953.883 166.954 955.754 168.942C957.626 170.932 958.742 173.669 958.951 176.337C959.169 178.93 958.665 181.532 957.494 183.856C956.339 186.073 954.695 188.05 952.223 189.234Z" fill="#58C268"/>
<path d="M948.654 165.821C941.113 169.55 933.81 182.09 933.81 182.09L948.654 165.821ZM948.654 165.821C947.754 168.105 947.052 169.743 946.19 171.321C945.364 172.839 944.388 174.27 943.275 175.592C942.126 176.955 940.821 178.178 939.386 179.235C937.861 180.338 936.166 181.348 933.81 182.09C933.356 179.643 933.719 177.561 934.339 175.64C934.98 173.752 935.974 172.003 937.269 170.487C938.592 168.922 940.221 167.644 942.057 166.731C943.954 165.835 946.229 165.2 948.654 165.821Z" fill="#2A933A"/>
</g>
<path d="M1021.29 54.8359C1036.62 43.9403 1030.49 18.3562 1030.49 18.3562L1033.07 17.8718C1033.07 17.8718 1040.98 45.7963 1028.8 58.4832L1021.29 54.8359Z" fill="#EE8A2C"/>
<path d="M1011.84 25.861C1011.38 23.5292 1011.87 21.01 1013.04 18.8851C1014.21 16.7688 1016.25 14.9107 1018.73 14.0219C1021.2 13.1101 1023.9 13.2215 1026.14 13.9864C1028.4 14.7644 1030.33 16.0876 1031.75 17.9706C1029.4 18.0643 1027.36 17.9596 1025.48 18.0647C1023.61 18.1546 1021.99 18.4324 1020.53 18.9611C1019.06 19.4897 1017.68 20.2974 1016.26 21.4548C1014.83 22.6083 1013.46 24.1751 1011.84 25.861ZM1049.29 18.8383L1044.36 17.3977C1042.91 16.9954 1041.62 16.7328 1040.43 16.6393C1039.23 16.5435 1038.06 16.5865 1036.67 16.8506C1035.27 17.0974 1033.72 17.614 1031.78 18.1127C1032.11 16.1342 1033.19 14.4249 1034.81 13.1576C1036.43 11.8943 1038.69 11.1941 1040.86 11.4049C1043.04 11.5833 1044.99 12.5465 1046.45 13.85C1047.89 15.1768 1048.97 16.835 1049.29 18.8383Z" fill="#2A933A"/>
<path d="M1031.78 18.1127C1029.61 19.8908 1028.03 21.3913 1026.84 22.8387C1025.64 24.283 1024.89 25.5971 1024.18 27.0761C1023.48 28.5521 1022.85 30.2626 1022.19 32.2669C1021.5 34.2705 1020.87 36.5095 1019.68 39.0961C1017.64 37.1056 1016.5 34.6833 1015.99 32.0276C1015.52 29.3885 1015.75 26.4206 1017.06 23.6827C1018.33 20.9411 1020.79 18.6256 1023.55 17.6083C1026.31 16.6007 1029.31 16.6313 1031.78 18.1127ZM1048.33 35.0598C1046.42 33.1616 1045.05 31.5128 1043.76 29.9674C1042.63 28.5619 1041.48 27.1715 1040.3 25.7966C1039.21 24.5442 1038.19 23.3979 1036.88 22.19C1035.58 20.954 1033.96 19.7482 1031.78 18.1127C1033.94 16.4555 1036.69 15.9861 1039.37 16.5117C1042.05 17.0381 1044.55 18.6114 1046.28 20.6579C1047.97 22.6377 1049.07 25.0464 1049.48 27.617C1049.83 30.0917 1049.65 32.6564 1048.33 35.0598Z" fill="#58C268"/>
<path d="M1031.78 18.1127C1027.83 25.5376 1029.2 39.9835 1029.2 39.9835L1031.78 18.1127ZM1031.78 18.1127C1032.38 20.4931 1032.77 22.2336 1032.99 24.0183C1033.2 25.733 1033.24 27.4648 1033.11 29.1875C1032.97 30.9645 1032.62 32.7189 1032.07 34.4145C1031.47 36.1999 1030.68 38.008 1029.2 39.9835C1027.41 38.2603 1026.49 36.3567 1025.87 34.4338C1025.29 32.5262 1025.08 30.5259 1025.25 28.5394C1025.41 26.4964 1025.99 24.5083 1026.95 22.6971C1027.97 20.8632 1029.45 19.0206 1031.78 18.1127Z" fill="#2A933A"/>
<path d="M941.732 303.408C939.614 302.777 938.409 300.55 939.04 298.433L955.621 242.775L829.553 205.219C827.436 204.588 826.231 202.36 826.862 200.243L835.322 171.844C835.569 171.015 836.079 170.287 836.775 169.772L1012.93 39.3274C1013.94 38.5784 1015.24 38.3491 1016.45 38.7084L1057.77 51.0168C1059.88 51.6476 1061.09 53.8752 1060.46 55.9924L1012.47 217.077L1040.64 225.469C1042.76 226.1 1043.96 228.328 1043.33 230.445L1033.95 261.936C1033.32 264.054 1031.09 265.259 1028.98 264.628L1000.8 256.235L984.223 311.893C983.592 314.01 981.365 315.215 979.248 314.584L941.732 303.408ZM882.568 178.378L967.287 203.617L1000.94 90.659L882.568 178.378Z" fill="#4C9EFF"/>
<g clip-path="url(#clip3_1280_16892)">
<g clip-path="url(#clip4_1280_16892)">
<path d="M671.957 205.883C669.886 205.527 669.582 208.669 669.181 210.446C669.006 211.232 668.235 214.218 670.276 214.693C671.975 215.089 672.457 212.777 672.831 211.084C673.214 209.385 674.135 206.258 671.957 205.883Z" fill="#58C268"/>
<path d="M671.733 216.372L668.594 215.115L664.139 240.442C664.139 240.442 658.712 268.85 658.415 270.561C658.034 272.745 658.188 274.023 660.099 274.32C662.009 274.617 662.402 272.748 662.736 271.299C663.07 269.85 668.327 243.246 668.327 243.246L671.733 216.372Z" fill="#58C268"/>
<path d="M670.421 211.41C670.421 211.41 654.363 208.196 640.8 216.258C629.856 222.764 625.952 230.495 626.494 230.766C627.404 231.222 630.105 231.172 632.411 233.142C634.717 235.112 635.527 237.926 636.417 238.21C637.307 238.493 641.269 237.281 645.64 239.415C650.004 241.547 652.227 245.304 653.192 245.611C654.157 245.918 658.924 244.22 664.931 245.797C670.413 247.239 673.613 249.713 674.377 249.873C675.142 250.033 678.057 245.856 684.298 245.946C690.539 246.036 691.972 248.047 692.787 248.306C693.602 248.566 695.33 244.664 699.895 244.379C704.457 244.102 705.8 245.265 706.729 245.401C707.659 245.538 706.715 234.186 694.211 222.72C683.871 213.248 670.421 211.41 670.421 211.41Z" fill="#EE8A2C"/>
<path d="M670.775 212.773C670.775 212.773 659.704 212.625 649.127 221.554C640.473 228.858 638.237 235.579 638.485 236.068C638.734 236.557 642.685 235.918 646.702 237.614C650.721 239.302 653.22 243.533 653.651 242.882C654.199 242.055 656.682 233.971 659.778 227.485C665.564 215.347 670.519 213.883 670.519 213.883C670.519 213.883 674.779 219.304 675.586 231.037C676.095 238.397 675.241 245.521 675.506 246.545C675.623 247 678.963 244.24 684.097 244.19C688.848 244.14 692.257 246.43 692.867 246.298C693.48 246.16 692.032 234.018 685.924 225.354C679.033 215.553 670.775 212.773 670.775 212.773Z" fill="#FEFEFE"/>
</g>
</g>
<path d="M665.957 315.773C651.295 315.366 637.631 312.71 624.962 307.804C612.567 302.639 601.72 294.569 592.421 283.596C583.395 272.363 576.477 257.304 571.666 238.419C567.121 219.541 565.238 196.05 566.018 167.944L566.241 159.914C566.961 133.95 570.095 112.339 575.642 95.0806C581.464 77.5622 589.184 63.7128 598.803 53.5325C608.697 43.0918 619.971 35.7701 632.626 31.5673C645.547 27.3718 659.338 25.4775 673.999 25.8842C688.66 26.291 702.192 28.9433 714.594 33.8414C727.263 38.7467 738.114 46.6823 747.146 57.648C756.453 68.3534 763.394 82.6096 767.968 100.416C772.817 117.963 774.881 139.718 774.161 165.683L773.938 173.713C773.158 201.818 769.843 225.166 763.992 243.755C758.407 262.351 750.664 277.004 740.764 287.712C731.137 298.16 719.859 305.615 706.93 310.079C694.275 314.281 680.618 316.179 665.957 315.773ZM667.115 274.016C674.579 274.223 681.684 272.947 688.429 270.187C695.175 267.428 701.184 262.371 706.457 255.017C712.004 247.402 716.429 236.944 719.732 223.641C723.302 210.346 725.377 193.26 725.956 172.381L726.179 164.351C726.877 139.19 724.75 119.71 719.797 105.911C715.119 91.8514 708.589 82.0267 700.207 76.4366C691.826 70.8465 682.703 67.9146 672.841 67.641C662.978 67.3674 653.707 69.7889 645.028 74.9057C636.35 80.0225 629.152 89.4664 623.434 103.237C617.991 116.748 614.92 136.084 614.222 161.245L613.999 169.275C613.42 190.154 614.411 207.325 616.972 220.79C619.799 234.263 623.638 244.95 628.487 252.853C633.61 260.496 639.463 265.882 646.046 269.011C652.628 272.141 659.651 273.809 667.115 274.016Z" fill="#4C9EFF"/>
<defs>
<clipPath id="clip0_1280_16892">
<rect width="94" height="94" fill="white" transform="translate(239.867 120.465) rotate(-49.2705)"/>
</clipPath>
<clipPath id="clip1_1280_16892">
<rect width="94" height="94" fill="white" transform="translate(440.438 110.78) rotate(21.0692)"/>
</clipPath>
<clipPath id="clip2_1280_16892">
<rect width="63.0605" height="63.0605" fill="white" transform="translate(920.875 138.357) rotate(25.0225)"/>
</clipPath>
<clipPath id="clip3_1280_16892">
<rect width="96" height="96" fill="white" transform="translate(611 197)"/>
</clipPath>
<clipPath id="clip4_1280_16892">
<rect width="91.2542" height="71.6997" fill="white" transform="translate(633.789 190.771) rotate(17.6538)"/>
</clipPath>
</defs>
</svg>
