<svg width="232" height="247" viewBox="0 0 232 247" fill="none" xmlns="http://www.w3.org/2000/svg">
<path opacity="0.5" d="M137.481 58.0516L162.198 17.9833C164.895 13.6118 166.243 11.426 168.006 9.67371C169.569 8.12012 171.367 6.82219 173.333 5.82758C175.551 4.70574 178.05 4.1136 183.048 2.92933L186.342 2.14891C192.881 0.599368 196.151 -0.175401 198.95 0.505437C201.413 1.10432 203.622 2.46737 205.262 4.39922C207.127 6.59544 207.902 9.86521 209.451 16.4048L210.232 19.6985C211.416 24.6965 212.008 27.1955 212.001 29.681C211.994 31.8846 211.641 34.0735 210.954 36.1673C210.179 38.5288 208.83 40.7146 206.133 45.0861L181.416 85.1544L230.898 192.768C237.237 206.546 213.966 233.321 201.969 215.95L148.502 138.51L115.569 191.897C123.661 216.62 126.094 224.891 112.603 246.761L75.1087 208.322L23.9329 192.063C37.4242 170.192 45.9072 168.655 71.6335 164.794L104.567 111.407L11.3818 98.3695C-9.53591 95.4517 3.94164 62.6347 19.1061 62.1175L137.481 58.0516Z" fill="white"/>
</svg>
