<svg width="217" height="276" viewBox="0 0 217 276" fill="none" xmlns="http://www.w3.org/2000/svg">
<path d="M162.713 274.833C160.604 275.493 158.361 274.318 157.701 272.209L140.369 216.781L14.8212 256.039C12.7127 256.699 10.469 255.524 9.80972 253.415L0.966264 225.134C0.707823 224.307 0.72458 223.419 1.01401 222.603L74.276 16.0158C74.6966 14.8297 75.651 13.9107 76.8522 13.5351L117.998 0.669029C120.107 0.00972828 122.35 1.18451 123.01 3.29297L173.172 163.714L201.227 154.941C203.336 154.282 205.579 155.457 206.239 157.565L216.045 188.927C216.705 191.035 215.53 193.279 213.421 193.938L185.366 202.711L202.698 258.139C203.358 260.248 202.183 262.491 200.074 263.151L162.713 274.833ZM43.8062 204.166L128.175 177.784L92.9998 65.2918L43.8062 204.166Z" fill="#4C9EFF"/>
</svg>
