<svg width="48" height="48" viewBox="0 0 48 48" fill="none" xmlns="http://www.w3.org/2000/svg">
<g filter="url(#filter0_f_1204_12534)">
<path d="M22.1243 13.069C22.7686 11.3278 25.2314 11.3278 25.8757 13.069L28.0023 18.8161C28.2049 19.3635 28.6365 19.7951 29.1839 19.9977L34.931 22.1243C36.6722 22.7686 36.6722 25.2314 34.931 25.8757L29.1839 28.0023C28.6365 28.2049 28.2049 28.6365 28.0023 29.1839L25.8757 34.931C25.2314 36.6722 22.7686 36.6722 22.1243 34.931L19.9977 29.1839C19.7951 28.6365 19.3635 28.2049 18.8161 28.0023L13.069 25.8757C11.3278 25.2314 11.3278 22.7686 13.069 22.1243L18.8161 19.9977C19.3635 19.7951 19.7951 19.3635 19.9977 18.8161L22.1243 13.069Z" fill="white"/>
</g>
<path d="M22.1243 11.069C22.9106 8.94403 23.3038 7.88154 24 7.88154C24.6962 7.88154 25.0894 8.94403 25.8757 11.069L28.0023 16.8161C28.1593 17.2404 28.2378 17.4526 28.3926 17.6074C28.5474 17.7622 28.7596 17.8407 29.1839 17.9977L34.931 20.1243C37.056 20.9106 38.1185 21.3038 38.1185 22C38.1185 22.6962 37.056 23.0894 34.931 23.8757L29.1839 26.0023C28.7596 26.1593 28.5474 26.2378 28.3926 26.3926C28.2378 26.5474 28.1593 26.7596 28.0023 27.1839L25.8757 32.931C25.0894 35.056 24.6962 36.1185 24 36.1185C23.3038 36.1185 22.9106 35.056 22.1243 32.931L19.9977 27.1839C19.8407 26.7596 19.7622 26.5474 19.6074 26.3926C19.4526 26.2378 19.2404 26.1593 18.8161 26.0023L13.069 23.8757C10.944 23.0894 9.88154 22.6962 9.88154 22C9.88154 21.3038 10.944 20.9106 13.069 20.1243L18.8161 17.9977C19.2404 17.8407 19.4526 17.7622 19.6074 17.6074C19.7622 17.4526 19.8407 17.2404 19.9977 16.8161L22.1243 11.069Z" fill="white"/>
<defs>
<filter id="filter0_f_1204_12534" x="0.461719" y="0.463061" width="47.0766" height="47.0739" filterUnits="userSpaceOnUse" color-interpolation-filters="sRGB">
<feFlood flood-opacity="0" result="BackgroundImageFix"/>
<feBlend mode="normal" in="SourceGraphic" in2="BackgroundImageFix" result="shape"/>
<feGaussianBlur stdDeviation="5.65" result="effect1_foregroundBlur_1204_12534"/>
</filter>
</defs>
</svg>
