<svg width="74" height="74" viewBox="0 0 74 74" fill="none" xmlns="http://www.w3.org/2000/svg">
<path d="M28.2886 54.8359C43.6219 43.9403 37.4872 18.3562 37.4872 18.3562L40.0697 17.8718C40.0697 17.8718 47.98 45.7963 35.803 58.4832L28.2886 54.8359Z" fill="#EE8A2C"/>
<path d="M18.8443 25.861C18.3776 23.5292 18.8742 21.01 20.0409 18.8851C21.2119 16.7688 23.2508 14.9107 25.7307 14.0219C28.2049 13.1101 30.8965 13.2215 33.1398 13.9864C35.399 14.7644 37.3313 16.0876 38.7511 17.9706C36.3988 18.0643 34.3555 17.9596 32.4838 18.0647C30.6146 18.1546 28.9905 18.4324 27.5258 18.9611C26.061 19.4897 24.6767 20.2974 23.259 21.4548C21.8339 22.6083 20.4569 24.1751 18.8443 25.861ZM56.2905 18.8383L51.3567 17.3977C49.9098 16.9954 48.6229 16.7328 47.425 16.6393C46.2255 16.5435 45.0626 16.5865 43.6685 16.8506C42.2672 17.0974 40.724 17.614 38.7778 18.1127C39.1138 16.1342 40.1887 14.4249 41.8144 13.1576C43.4261 11.8943 45.6914 11.1941 47.8602 11.4049C50.0377 11.5833 51.9934 12.5465 53.4462 13.85C54.8887 15.1768 55.975 16.835 56.2905 18.8383Z" fill="#2A933A"/>
<path d="M38.7827 18.1127C36.6073 19.8908 35.0348 21.3913 33.8385 22.8387C32.6444 24.283 31.8884 25.5971 31.1793 27.0761C30.479 28.5521 29.8467 30.2626 29.188 32.2669C28.5038 34.2705 27.8691 36.5095 26.678 39.0961C24.6406 37.1056 23.5019 34.6833 22.9945 32.0276C22.5196 29.3885 22.7503 26.4206 24.0641 23.6827C25.333 20.9411 27.7873 18.6256 30.5532 17.6083C33.3103 16.6007 36.3115 16.6313 38.7827 18.1127ZM55.3277 35.0598C53.4185 33.1616 52.0466 31.5128 50.765 29.9674C49.6293 28.5619 48.4752 27.1715 47.3028 25.7966C46.2124 24.5442 45.1901 23.3979 43.8835 22.19C42.5838 20.954 40.9595 19.7482 38.7827 18.1127C40.9408 16.4555 43.6932 15.9861 46.3715 16.5117C49.0527 17.0381 51.5545 18.6114 53.279 20.6579C54.9673 22.6377 56.0741 25.0464 56.4768 27.617C56.83 30.0917 56.6467 32.6564 55.3277 35.0598Z" fill="#58C268"/>
<path d="M38.7827 18.1127C34.8285 25.5376 36.201 39.9835 36.201 39.9835L38.7827 18.1127ZM38.7827 18.1127C39.3828 20.4931 39.7667 22.2336 39.9864 24.0183C40.1995 25.733 40.2395 27.4648 40.1057 29.1875C39.9666 30.9645 39.6186 32.7189 39.069 34.4145C38.4722 36.1999 37.6831 38.008 36.201 39.9835C34.4062 38.2603 33.4878 36.3567 32.8718 34.4338C32.2926 32.5262 32.0816 30.5259 32.2503 28.5394C32.4137 26.4964 32.9928 24.5083 33.9522 22.6971C34.9717 20.8632 36.4507 19.0206 38.7827 18.1127Z" fill="#2A933A"/>
</svg>
