<svg width="123" height="123" viewBox="0 0 123 123" fill="none" xmlns="http://www.w3.org/2000/svg">
<g clip-path="url(#clip0_1280_16871)">
<path d="M36.5075 77.1301C64.4879 75.3178 76.7414 38.0637 76.7414 38.0637L80.3963 39.4718C80.3963 39.4718 68.5621 81.0847 43.1823 87.6407L36.5075 77.1301Z" fill="#EE8A2C"/>
<path d="M47.2122 32.9843C48.4463 29.6612 51.0489 26.8549 54.1927 25.0734C57.3353 23.3061 61.3763 22.546 65.2177 23.3607C69.07 24.1417 72.3966 26.3908 74.6431 29.1177C76.8993 31.8736 78.3141 35.065 78.6403 38.5653C75.5833 36.8419 73.0736 35.109 70.6173 33.7766C68.1761 32.4269 65.8987 31.5075 63.6268 31.0311C61.355 30.5546 58.9666 30.4949 56.2621 30.8528C53.5513 31.1998 50.5778 32.1088 47.2122 32.9843ZM100.207 53.4007L95.0774 47.7099C93.5573 46.0665 92.1306 44.7257 90.6845 43.6691C89.238 42.6082 87.7295 41.7521 85.7544 40.9954C83.7838 40.211 81.4219 39.6579 78.5628 38.7663C80.5384 36.52 83.2403 35.1937 86.2946 34.8593C89.3281 34.5191 92.7497 35.4049 95.3355 37.3707C97.9576 39.3022 99.6839 42.0554 100.506 44.8463C101.296 47.6587 101.376 50.6127 100.207 53.4007Z" fill="#2A933A"/>
<path d="M78.566 38.7659C74.4143 39.3176 71.2447 39.9894 68.594 40.8885C65.9484 41.7853 63.9604 42.86 61.9028 44.1806C59.8588 45.5044 57.7173 47.1788 55.3124 49.2051C52.8755 51.2107 50.3171 53.5535 46.7808 55.9015C45.7553 51.7814 46.208 47.8173 47.6441 44.0515C49.1084 40.3323 51.7251 36.7486 55.5355 34.3047C59.2918 31.8211 64.218 30.806 68.5229 31.6817C72.8089 32.5627 76.5915 34.9517 78.566 38.7659ZM86.2799 73.2172C85.3448 69.3145 84.8959 66.1489 84.4806 63.1851C84.1408 60.5132 83.7657 57.8459 83.3553 55.1839C82.9531 52.7415 82.5541 50.487 81.8428 47.9318C81.162 45.3463 80.0461 42.5449 78.566 38.7659C82.6008 38.3539 86.4595 39.9139 89.445 42.6779C92.4335 45.4452 94.3748 49.3998 94.9595 53.3459C95.5504 57.1791 95.0681 61.1011 93.5659 64.6768C92.0759 68.0923 89.835 71.2017 86.2799 73.2172Z" fill="#58C268"/>
<path d="M78.5682 38.766C67.7385 45.087 58.1669 64.4845 58.1669 64.4845L78.5682 38.766ZM78.5682 38.766C77.4653 42.2551 76.5893 44.7633 75.4704 47.199C74.398 49.5408 73.0925 51.7686 71.5738 53.8489C70.0058 55.9938 68.1906 57.9466 66.1657 59.6668C64.0105 61.464 61.5938 63.1395 58.1669 64.4845C57.2398 60.8934 57.5656 57.7597 58.2902 54.8384C59.0493 51.9653 60.3483 49.2629 62.1177 46.8754C63.9248 44.412 66.2163 42.3439 68.8514 40.798C71.5806 39.2702 74.8994 38.0913 78.5682 38.766Z" fill="#2A933A"/>
</g>
<defs>
<clipPath id="clip0_1280_16871">
<rect width="94" height="94" fill="white" transform="translate(34.4375 0.779602) rotate(21.0692)"/>
</clipPath>
</defs>
</svg>
