<svg width="134" height="133" viewBox="0 0 134 133" fill="none" xmlns="http://www.w3.org/2000/svg">
<g clip-path="url(#clip0_1280_16863)">
<path d="M73.461 95.2083C81.1682 68.2492 50.2085 44.1762 50.2085 44.1762L52.7641 41.2081C52.7641 41.2081 87.9696 66.3528 85.6046 92.4588L73.461 95.2083Z" fill="#E77913"/>
<path d="M35.4907 70.2684C32.7765 67.9883 31.0094 64.5931 30.3895 61.0332C29.7825 57.4793 30.4263 53.4181 32.4859 50.0747C34.5175 46.7098 37.7546 44.3338 41.0783 43.1358C44.4327 41.9383 47.914 41.6797 51.32 42.5501C48.6687 44.8491 46.1924 46.6295 44.1113 48.4943C42.0189 50.3391 40.3869 52.1745 39.1738 54.1535C37.9608 56.1326 37.1011 58.3617 36.5282 61.0289C35.9429 63.6985 35.7986 66.8044 35.4907 70.2684ZM72.5466 27.2318L65.4617 30.1478C63.4027 31.0264 61.66 31.9189 60.1785 32.9252C58.6928 33.9304 57.379 35.063 56.002 36.6683C54.6003 38.2602 53.2848 40.2983 51.4833 42.6907C50.0326 40.0746 49.6926 37.0839 50.4054 34.0952C51.1056 31.124 53.0909 28.2 55.8121 26.4263C58.5131 24.6068 61.6866 23.9075 64.5914 24.0724C67.5059 24.2741 70.3143 25.1934 72.5466 27.2318Z" fill="#58C268"/>
<path d="M51.4879 42.6904C50.6106 46.7857 50.1769 49.9966 50.1318 52.7952C50.0862 55.5883 50.4294 57.822 50.9808 60.2039C51.5396 62.5742 52.396 65.1542 53.495 68.1006C54.5638 71.0702 55.9093 74.2677 56.9307 78.3878C52.7057 77.9673 49.125 76.2073 46.0619 73.588C43.0522 70.9578 40.5578 67.2879 39.5383 62.8774C38.4633 58.5044 39.1648 53.5239 41.4377 49.7646C43.7093 46.0249 47.2318 43.2665 51.4879 42.6904ZM86.5261 47.0171C82.5363 46.5846 79.4042 45.9423 76.4735 45.3363C73.843 44.7573 71.205 44.2132 68.5601 43.704C66.1247 43.261 63.8675 42.8783 61.2219 42.6884C58.5581 42.4597 55.5446 42.568 51.4879 42.6904C52.4574 38.7522 55.2247 35.6433 58.832 33.7618C62.4434 31.8786 66.8206 31.3809 70.7334 32.158C74.542 32.8911 78.073 34.6648 80.9349 37.2825C83.65 39.8348 85.8242 42.9912 86.5261 47.0171Z" fill="#2A933A"/>
<path d="M51.4882 42.6906C53.7972 55.0156 68.8436 70.5554 68.8436 70.5554L51.4882 42.6906ZM51.4882 42.6906C54.4029 44.903 56.4702 46.5719 58.3874 48.445C60.2319 50.2428 61.8907 52.2217 63.3387 54.3518C64.831 56.55 66.0592 58.9164 66.9979 61.402C67.9652 64.0362 68.7299 66.8757 68.8436 70.5554C65.1499 70.2202 62.3085 68.8591 59.8014 67.1939C57.3511 65.5124 55.2433 63.38 53.5903 60.9105C51.8785 58.3799 50.7019 55.5262 50.1327 52.5246C49.6122 49.4405 49.6186 45.9185 51.4882 42.6906Z" fill="#58C268"/>
</g>
<defs>
<clipPath id="clip0_1280_16863">
<rect width="94" height="94" fill="white" transform="translate(0.867188 71.4653) rotate(-49.2705)"/>
</clipPath>
</defs>
</svg>
