<svg width="85" height="85" viewBox="0 0 85 85" fill="none" xmlns="http://www.w3.org/2000/svg">
<g clip-path="url(#clip0_1280_16878)">
<path d="M24.7235 51.551C43.5335 51.6322 53.4573 27.2663 53.4573 27.2663L55.8382 28.3776C55.8382 28.3776 45.9935 55.6802 28.7045 58.894L24.7235 51.551Z" fill="#EE8A2C"/>
<path d="M33.9376 22.5011C34.9172 20.3342 36.7889 18.5764 38.9753 17.5295C41.1602 16.4921 43.8999 16.1703 46.4331 16.8932C48.9752 17.5941 51.0975 19.2531 52.4748 21.182C53.8574 23.1308 54.6566 25.3321 54.7131 27.6898C52.7469 26.3951 51.1474 25.1192 49.5651 24.1139C47.9937 23.0977 46.512 22.377 45.0136 21.9531C43.5152 21.5291 41.9195 21.3787 40.093 21.4931C38.2627 21.6 36.2306 22.0709 33.9376 22.5011ZM68.4608 38.6161L65.2909 34.5702C64.3495 33.4 63.4567 32.4367 62.5377 31.6627C61.6187 30.8857 60.6487 30.243 59.3619 29.6452C58.0793 29.0291 56.5242 28.5497 54.652 27.8208C56.078 26.4088 57.9476 25.6461 60.0072 25.5636C62.0532 25.4762 64.3021 26.2273 65.9418 27.6625C67.6073 29.0764 68.6353 30.9989 69.0564 32.9048C69.4554 34.8236 69.3718 36.8042 68.4608 38.6161Z" fill="#2A933A"/>
<path d="M54.6536 27.8208C51.8495 27.9979 49.6972 28.301 47.8816 28.7801C46.0695 29.258 44.6893 29.8852 43.2512 30.6739C41.822 31.4653 40.3113 32.4869 38.6081 33.7318C36.8844 34.9614 35.0638 36.411 32.5886 37.8189C32.0928 35.014 32.5791 32.3819 33.7144 29.9281C34.8664 27.5067 36.7834 25.2293 39.4465 23.7699C42.0754 22.2814 45.4193 21.8299 48.2598 22.6151C51.0875 23.4029 53.5086 25.1768 54.6536 27.8208ZM58.2228 51.2344C57.7775 48.5792 57.6235 46.4399 57.4826 44.4371C57.3788 42.6332 57.2511 40.8307 57.0996 39.0302C56.9434 37.3769 56.7806 35.8497 56.4227 34.1067C56.0867 32.3448 55.4694 30.4184 54.6536 27.8208C57.3731 27.7317 59.8833 28.9542 61.7536 30.9421C63.6256 32.9323 64.742 35.6688 64.9508 38.3368C65.169 40.9295 64.6648 43.532 63.4941 45.8557C62.3389 48.0726 60.6953 50.05 58.2228 51.2344Z" fill="#58C268"/>
<path d="M54.6536 27.8208C47.1134 31.5503 39.8103 44.0896 39.8103 44.0896L54.6536 27.8208ZM54.6536 27.8208C53.7541 30.1049 53.0518 31.743 52.1904 33.3214C51.3643 34.839 50.3876 36.2697 49.275 37.5917C48.1263 38.9547 46.8212 40.1776 45.3864 41.2352C43.8609 42.3383 42.166 43.3479 39.8103 44.0896C39.356 41.6433 39.719 39.5611 40.339 37.6395C40.9799 35.7518 41.9742 34.0032 43.2689 32.4872C44.5922 30.9222 46.2215 29.6441 48.0566 28.7313C49.9538 27.8351 52.2295 27.1995 54.6536 27.8208Z" fill="#2A933A"/>
</g>
<defs>
<clipPath id="clip0_1280_16878">
<rect width="63.0605" height="63.0605" fill="white" transform="translate(26.875 0.356995) rotate(25.0225)"/>
</clipPath>
</defs>
</svg>
