<svg width="148" height="218" viewBox="0 0 148 218" fill="none" xmlns="http://www.w3.org/2000/svg">
<g opacity="0.4" filter="url(#filter0_f_857_8527)">
<path d="M18.0995 169.278C23.9455 166.777 29.9413 166.753 36.1483 169.234C42.3555 171.716 46.6779 175.865 49.1804 181.702L49.1847 181.713L49.189 181.723C51.752 187.352 51.7851 193.329 49.2205 199.725C47.617 203.724 45.1273 207.042 41.741 209.695L41.7345 209.701L41.7269 209.706C38.612 212.237 35.0729 213.751 31.0896 214.256L31.0692 214.258L31.0488 214.261C27.002 214.946 22.8873 214.463 18.6851 212.783C14.6804 211.181 11.3568 208.696 8.70095 205.314L8.69578 205.308L8.69057 205.3L8.22445 204.71C5.95824 201.74 4.5016 198.36 3.85207 194.554C3.42297 190.38 4.00731 186.297 5.61296 182.293C8.17755 175.897 12.3321 171.593 18.0783 169.285L18.0889 169.282L18.0995 169.278ZM64.5491 4.29797C75.8797 2.99837 87.7244 4.80189 100.098 9.7489C113.059 14.9306 123.144 21.6826 130.402 29.978C137.673 38.2873 142.07 47.4826 143.626 57.5739L143.628 57.5865L143.631 57.6C145.448 67.5827 144.352 77.5903 140.321 87.6433C137.482 94.7251 133.701 100.643 128.992 105.417C124.254 110.22 118.728 114.283 112.409 117.604L112.406 117.605C106.319 120.83 99.4692 123.761 91.8547 126.393C86.231 128.327 81.5002 130.19 77.6699 131.986C73.8909 133.604 70.7479 135.507 68.2657 137.709C65.7339 139.955 63.7029 143.05 62.1435 146.939C61.0916 149.562 58.1141 150.837 55.4898 149.788L39.4039 143.357C34.6759 141.467 32.3771 136.1 34.2719 131.374L34.4504 130.93C36.5422 125.713 39.0096 121.446 41.8397 118.105C44.9296 114.657 48.9192 111.647 53.8298 109.085L53.8404 109.08L53.8499 109.075C58.8564 106.316 65.256 103.653 73.064 101.094L73.0726 101.091L73.0803 101.089C82.8127 97.713 90.7792 94.153 96.9592 90.4015C103.414 86.6761 107.905 81.7673 110.352 75.6643C113.391 68.0862 113.287 60.5989 110.037 53.2666L109.712 52.5572C106.21 44.7816 99.5612 38.9906 89.9169 35.1348C80.5585 31.3933 71.9479 31.004 64.1561 34.0892L63.404 34.399C60.6587 35.5185 58.1592 37.0149 55.9096 38.888C52.326 41.8721 48.2386 44.5681 44.0098 46.0915C39.7909 47.6114 35.4863 47.9469 31.3844 46.307C27.2371 44.6489 24.1197 41.4134 22.7109 37.7408C21.3095 34.0871 21.5951 30.0115 24.2241 26.5407C27.3174 22.4573 30.8957 18.8733 34.9611 15.789L34.9622 15.7899C43.6076 9.31888 53.4605 5.48756 64.5422 4.29826L64.5491 4.29797Z" stroke="white" stroke-width="2"/>
</g>
<defs>
<filter id="filter0_f_857_8527" x="0.714844" y="0.88974" width="146.766" height="216.672" filterUnits="userSpaceOnUse" color-interpolation-filters="sRGB">
<feFlood flood-opacity="0" result="BackgroundImageFix"/>
<feBlend mode="normal" in="SourceGraphic" in2="BackgroundImageFix" result="shape"/>
<feGaussianBlur stdDeviation="1" result="effect1_foregroundBlur_857_8527"/>
</filter>
</defs>
</svg>
