<svg width="125" height="165" viewBox="0 0 125 165" fill="none" xmlns="http://www.w3.org/2000/svg">
<path d="M25.6829 240.875C81.4137 240.875 124.141 197.663 124.141 142.106L124.141 24.125C124.141 10.8702 113.395 0.124985 100.141 0.124985L24.2945 0.124985C11.0396 0.124985 0.294472 10.8701 0.294472 24.125L0.294472 99.5865C0.294472 112.841 11.0396 123.587 24.2944 123.587L86.9868 123.587L86.9868 142.106C86.9868 172.971 56.6445 203.837 25.6829 203.837L9.58293 203.837C4.62908 203.837 0.294472 208.158 0.294472 213.096L0.294472 231.615C0.294472 236.554 4.62908 240.875 9.58293 240.875L25.6829 240.875Z" fill="#F5F4FA"/>
</svg>
