<svg width="95" height="90" viewBox="0 0 95 90" fill="none" xmlns="http://www.w3.org/2000/svg">
<g clip-path="url(#clip0_1280_16954)">
<path d="M59.9574 8.88309C57.8861 8.52727 57.5819 11.6693 57.1812 13.4456C57.0058 14.2317 56.2351 17.2176 58.276 17.6927C59.9753 18.0894 60.4567 15.7774 60.8311 14.0838C61.2145 12.3854 62.1351 9.25757 59.9574 8.88309Z" fill="#58C268"/>
<path d="M59.7325 19.3719L56.5938 18.1151L52.1395 43.4422C52.1395 43.4422 46.7122 71.8502 46.4147 73.5608C46.0337 75.7453 46.1881 77.0232 48.0986 77.3203C50.0091 77.6173 50.4022 75.7476 50.736 74.2989C51.0699 72.8502 56.327 46.2464 56.327 46.2464L59.7325 19.3719Z" fill="#58C268"/>
<path d="M58.4209 14.4097C58.4209 14.4097 42.3634 11.1956 28.7997 19.2577C17.8559 25.7642 13.9517 33.4948 14.4939 33.7659C15.4035 34.2223 18.1054 34.172 20.4112 36.1421C22.7169 38.1123 23.5272 40.9263 24.4171 41.2095C25.3071 41.4928 29.2689 40.2809 33.6397 42.4153C38.0037 44.5474 40.2272 48.3042 41.1919 48.6113C42.1566 48.9183 46.9243 47.2195 52.931 48.7975C58.4128 50.2386 61.6128 52.7134 62.3774 52.8733C63.142 53.0332 66.0574 48.8563 72.2984 48.9463C78.5393 49.0362 79.9718 51.047 80.787 51.3064C81.6022 51.5659 83.3304 47.6635 87.8949 47.3792C92.4572 47.1018 93.8003 48.2649 94.7294 48.4014C95.6586 48.5378 94.715 37.1862 82.2113 25.7204C71.8713 16.248 58.4209 14.4097 58.4209 14.4097Z" fill="#EE8A2C"/>
<path d="M58.775 15.7732C58.775 15.7732 47.7045 15.6253 37.1269 24.5542C28.4731 31.8578 26.2367 38.5794 26.4852 39.0681C26.7336 39.5567 30.6852 38.9181 34.7018 40.6135C38.7207 42.3022 41.2196 46.5334 41.6514 45.882C42.1989 45.055 44.6819 36.9708 47.7785 30.4851C53.5641 18.3472 58.5192 16.8826 58.5192 16.8826C58.5192 16.8826 62.7791 22.3039 63.5864 34.0369C64.0945 41.3968 63.2414 48.5206 63.5063 49.5455C63.6235 50 66.9633 47.24 72.0966 47.1898C76.8485 47.1396 80.2567 49.4303 80.8673 49.2985C81.4801 49.1597 80.0322 37.0181 73.924 28.3538C67.0328 18.5529 58.775 15.7732 58.775 15.7732Z" fill="#FEFEFE"/>
</g>
<defs>
<clipPath id="clip0_1280_16954">
<rect width="91.2542" height="71.6997" fill="white" transform="translate(21.7891 -6.22867) rotate(17.6538)"/>
</clipPath>
</defs>
</svg>
