<svg width="225" height="217" viewBox="0 0 225 217" fill="none" xmlns="http://www.w3.org/2000/svg">
<path opacity="0.2" d="M66.6136 44.3646L-4.16707 77.6466C-10.9942 80.8568 -18.9084 80.8094 -25.692 77.5269L-29.4747 75.6959C-36.2774 72.4065 -44.1855 72.3721 -51.0126 75.5823L-90.3107 94.0607C-101.728 99.4294 -106.64 113.061 -101.258 124.508L-58.577 215.277C-51.9025 229.472 -34.9938 235.579 -20.8194 228.914L54.5517 193.473C60.7286 190.569 68.0771 192.25 72.3954 197.55C76.7138 202.85 84.0624 204.531 90.2392 201.627L183.212 153.925C187.737 151.797 196.168 168.083 196.112 163.068L196.023 154.3C195.919 143.949 201.858 134.494 211.208 130.097L220.493 125.731C228.867 121.793 220.839 109.836 221.025 100.573L219.614 23.9766C219.867 10.7702 209.099 -0.00529131 195.912 0.248265L111.225 16.3979C98.9514 16.6354 80.4465 12.0511 79.9263 24.3177C79.5559 32.9518 74.429 40.6897 66.6136 44.3646Z" fill="url(#paint0_linear_2364_5625)"/>
<defs>
<linearGradient id="paint0_linear_2364_5625" x1="29.8624" y1="5.42323" x2="58.2169" y2="113.182" gradientUnits="userSpaceOnUse">
<stop stop-color="#BE76FF" stop-opacity="0.6"/>
<stop offset="1" stop-color="#E9E6F4"/>
</linearGradient>
</defs>
</svg>
