<svg width="210" height="291" viewBox="0 0 210 291" fill="none" xmlns="http://www.w3.org/2000/svg">
<path d="M100.957 290.773C86.2955 290.366 72.6306 287.71 59.9617 282.804C47.5669 277.639 36.7199 269.569 27.4206 258.596C18.3953 247.363 11.477 232.304 6.66551 213.419C2.12062 194.541 0.238051 171.05 1.0178 142.944L1.24058 134.914C1.96092 108.95 5.0948 87.3388 10.6422 70.0806C16.4636 52.5622 24.184 38.7128 33.8034 28.5325C43.6967 18.0918 54.9708 10.7701 67.6255 6.56726C80.5469 2.37182 94.338 0.477469 108.999 0.884217C123.66 1.29097 137.192 3.94335 149.594 8.84135C162.263 13.7467 173.114 21.6823 182.146 32.648C191.453 43.3534 198.394 57.6096 202.968 75.4164C207.817 92.963 209.881 114.718 209.161 140.683L208.938 148.713C208.158 176.818 204.843 200.166 198.992 218.755C193.407 237.351 185.664 252.004 175.764 262.712C166.137 273.16 154.859 280.615 141.93 285.079C129.275 289.281 115.618 291.179 100.957 290.773ZM102.115 249.016C109.579 249.223 116.684 247.947 123.429 245.187C130.175 242.428 136.184 237.371 141.457 230.017C147.004 222.402 151.429 211.944 154.732 198.641C158.302 185.346 160.377 168.26 160.956 147.381L161.179 139.351C161.877 114.19 159.75 94.71 154.797 80.9109C150.119 66.8514 143.589 57.0267 135.207 51.4366C126.826 45.8465 117.703 42.9146 107.841 42.641C97.9777 42.3674 88.707 44.7889 80.0284 49.9057C71.3498 55.0225 64.1518 64.4664 58.4344 78.2374C52.9909 91.7482 49.9202 111.084 49.2221 136.245L48.9993 144.275C48.4201 165.154 49.4109 182.325 51.9718 195.79C54.7993 209.263 58.6377 219.95 63.4871 227.853C68.6104 235.496 74.4633 240.882 81.0457 244.011C87.6281 247.141 94.6512 248.809 102.115 249.016Z" fill="#4C9EFF"/>
</svg>
