<svg width="32" height="32" viewBox="0 0 32 32" fill="none" xmlns="http://www.w3.org/2000/svg">
<g clip-path="url(#clip0_1012_9271)">
<path d="M28.5405 0H3.45946C1.55676 0 0 1.55676 0 3.45946V28.5405C0 30.4432 1.55676 32 3.45946 32H28.5405C30.4432 32 32 30.4432 32 28.5405V3.45946C32 1.55676 30.4432 0 28.5405 0Z" fill="#4C9EFF"/>
<path d="M17.3656 26.5012C17.3302 22.3594 18.2841 18.9371 23.4889 19.1525C30.9155 0.227489 0.636541 0.948785 8.70832 19.0392C11.155 18.8869 15.2121 20.3442 14.5193 26.9492M32 24.1981L0 29.2351M0 4.79138L10.6768 6.77192M23.2259 8.67463L32 9.95549" stroke="white" stroke-width="2" stroke-linecap="round" stroke-linejoin="round"/>
<path d="M17.366 26.5012C17.3305 22.3594 18.2845 18.9371 23.4892 19.1525C30.9158 0.22748 0.636893 0.948776 8.70868 19.0392C11.1554 18.8869 15.2125 20.3442 14.5197 26.9492L17.366 26.5012Z" fill="white"/>
</g>
<defs>
<clipPath id="clip0_1012_9271">
<rect width="32" height="32" rx="16" fill="white"/>
</clipPath>
</defs>
</svg>
