<svg width="32" height="32" viewBox="0 0 32 32" fill="none" xmlns="http://www.w3.org/2000/svg">
<path d="M19.7934 7.09643L25.8315 1.05831C27.2426 -0.35277 29.5306 -0.35277 30.9417 1.05831C32.3528 2.46939 32.3528 4.75738 30.9417 6.16847L24.9036 12.2066L28.1706 28.4632C28.5894 30.5446 24.5551 33.4409 23.4816 30.6874L18.6977 18.4124L12.4882 24.6219C12.7926 28.251 12.857 29.4563 10.3133 32L6.44649 25.5535L0 21.6867C2.54374 19.143 3.74894 19.2074 7.37809 19.5117L13.5876 13.3023L1.31446 8.51845C-1.44083 7.44581 1.45438 3.4104 3.53682 3.82943L19.7934 7.09643Z" fill="url(#paint0_linear_394_1649)"/>
<defs>
<linearGradient id="paint0_linear_394_1649" x1="-37.0431" y1="50.7481" x2="78.8787" y2="55.4383" gradientUnits="userSpaceOnUse">
<stop stop-color="#FD6E48"/>
<stop offset="0.533654" stop-color="#FF6BC8"/>
<stop offset="0.9743" stop-color="#9427FF"/>
</linearGradient>
</defs>
</svg>
