<svg width="12" height="12" viewBox="0 0 12 12" fill="none" xmlns="http://www.w3.org/2000/svg">
<path d="M7.18544 3.21763L9.07235 1.33072C9.51332 0.889759 10.2283 0.889759 10.6693 1.33072C11.1102 1.77168 11.1102 2.48668 10.6693 2.92765L8.78237 4.81456L9.8033 9.89474C9.93419 10.5452 8.67347 11.4503 8.33799 10.5898L6.84304 6.75388L4.90258 8.69435C4.9977 9.82845 5.01782 10.2051 4.2229 11L3.01453 8.98547L1 7.7771C1.79492 6.98218 2.17154 7.0023 3.30565 7.09742L5.24612 5.15696L1.41077 3.66201C0.549739 3.32681 1.45449 2.06575 2.10526 2.1967L7.18544 3.21763Z" stroke="#96989C" stroke-linecap="round" stroke-linejoin="round"/>
</svg>
