<svg width="18" height="18" viewBox="0 0 18 18" fill="none" xmlns="http://www.w3.org/2000/svg">
<path d="M9 0C9.61224 0 10.2102 0.0612401 10.7881 0.177734C10.6544 0.264617 10.5464 0.392656 10.4893 0.554688C8.63941 5.80802 11.5841 10.909 17.0586 11.9336C17.2266 11.9649 17.3906 11.9349 17.5322 11.8633C16.3359 15.4297 12.9693 18 9 18C8.38736 18 7.7892 17.9379 7.21094 17.8213C7.34453 17.7343 7.45363 17.6073 7.51074 17.4453C9.30273 12.3561 6.59536 7.41047 1.44727 6.1748L0.941406 6.06641L0.865234 6.05664C0.724486 6.04488 0.587546 6.07282 0.467773 6.13281C1.66513 2.56826 5.03205 0 9 0ZM0.176758 7.21387C0.271557 7.35899 0.415288 7.47174 0.59082 7.52344L0.666016 7.54102L1.08789 7.63086C5.38243 8.65704 7.59266 12.6987 6.09668 16.9473C6.02641 17.147 6.04702 17.3558 6.13477 17.5312C2.56945 16.3343 0 12.9685 0 9C0 8.38849 0.0605342 7.79114 0.176758 7.21387ZM11.8643 0.467773C15.4302 1.66436 18 5.03107 18 9C18 9.61164 17.9376 10.2087 17.8213 10.7861C17.7135 10.6217 17.5434 10.4983 17.335 10.459C12.7647 9.60357 10.36 5.43843 11.9043 1.05273C11.9746 0.852573 11.9528 0.643379 11.8643 0.467773Z" fill="#595959"/>
</svg>
