<svg width="12" height="12" viewBox="0 0 12 12" fill="none" xmlns="http://www.w3.org/2000/svg">
<path d="M8.5 2.11111V1M3.5 2.11111V1M1.13889 3.77778H10.8611M4.55556 11H7.44444C8.68901 11 9.31129 11 9.78665 10.7712C10.2048 10.57 10.5447 10.249 10.7578 9.85405C11 9.4051 11 8.81739 11 7.64198V4.91358C11 3.73816 11 3.15045 10.7578 2.7015C10.5447 2.30659 10.2048 1.98552 9.78665 1.78431C9.31129 1.55556 8.68901 1.55556 7.44444 1.55556H4.55556C3.31099 1.55556 2.68871 1.55556 2.21335 1.78431C1.79522 1.98552 1.45526 2.30659 1.24221 2.7015C1 3.15045 1 3.73816 1 4.91358V7.64198C1 8.81739 1 9.4051 1.24221 9.85405C1.45526 10.249 1.79522 10.57 2.21335 10.7712C2.68871 11 3.31099 11 4.55556 11Z" stroke="#96989C" stroke-linecap="round" stroke-linejoin="round"/>
</svg>
