<svg width="32" height="32" viewBox="0 0 32 32" fill="none" xmlns="http://www.w3.org/2000/svg">
<path d="M10 3C10.5523 3 11 3.44772 11 4V4.33691C11.4584 4.33333 11.9542 4.33333 12.4916 4.33333H19.5084C20.0458 4.33333 20.5416 4.33333 21 4.33691V4C21 3.44772 21.4477 3 22 3C22.5523 3 23 3.44772 23 4V4.40141C23.0156 4.40256 23.0311 4.40373 23.0465 4.40492C23.9934 4.47799 24.7918 4.63008 25.5216 4.98124C26.7082 5.55228 27.6837 6.46873 28.2988 7.6088C28.6808 8.31691 28.8452 9.0916 28.9236 9.99809C29 10.8812 29 11.975 29 13.3464V19.9869C29 21.3583 29 22.4521 28.9236 23.3352C28.8452 24.2417 28.6808 25.0164 28.2988 25.7245C27.6837 26.8646 26.7082 27.7811 25.5216 28.3521C24.7918 28.7032 23.9934 28.8553 23.0465 28.9284C22.1186 29 20.9665 29 19.5084 29H12.4916C11.0335 29 9.88138 29 8.95347 28.9284C8.00662 28.8553 7.20816 28.7032 6.47843 28.3521C5.29178 27.7811 4.31627 26.8646 3.70121 25.7245C3.31919 25.0164 3.1548 24.2417 3.07638 23.3352C2.99998 22.4521 2.99999 21.3583 3 19.9868V13.3465C2.99999 11.9751 2.99998 10.8812 3.07638 9.99809C3.1548 9.0916 3.31919 8.31691 3.70121 7.6088C4.31627 6.46873 5.29178 5.55228 6.47843 4.98124C7.20816 4.63008 8.00662 4.47799 8.95348 4.40492C8.96892 4.40373 8.98443 4.40256 9 4.40141V4C9 3.44772 9.44772 3 10 3ZM9 6.40775C8.23035 6.47403 7.73883 6.59424 7.34567 6.78343C6.52526 7.17823 5.86898 7.80292 5.46139 8.55841C5.3096 8.83977 5.20016 9.17911 5.12706 9.66667H26.8729C26.7998 9.17911 26.6904 8.83977 26.5386 8.55841C26.131 7.80292 25.4747 7.17823 24.6543 6.78343C24.2612 6.59424 23.7696 6.47403 23 6.40775V6.66667C23 7.21895 22.5523 7.66667 22 7.66667C21.4477 7.66667 21 7.21895 21 6.66667V6.33704C20.5435 6.33343 20.036 6.33333 19.4667 6.33333H12.5333C11.964 6.33333 11.4565 6.33343 11 6.33704V6.66667C11 7.21895 10.5523 7.66667 10 7.66667C9.44772 7.66667 9 7.21895 9 6.66667V6.40775Z" fill="#595959"/>
</svg>
