<svg width="30" height="30" viewBox="0 0 30 30" fill="none" xmlns="http://www.w3.org/2000/svg">
<path d="M15 0C23.2843 1.93277e-07 30 6.71573 30 15C30 23.2843 23.2843 30 15 30C12.6005 30 10.3325 29.4363 8.32129 28.4346C6.80301 27.6784 4.75416 28.7281 3.25977 29.1279C1.81047 29.5155 0.484517 28.1895 0.87207 26.7402C1.27192 25.2458 2.32156 23.197 1.56543 21.6787C0.563662 19.6675 5.59828e-08 17.3995 0 15C0 6.71573 6.71573 0 15 0ZM19.3057 10.6533C18.7811 10.2745 18.0616 10.3618 17.6406 10.835L17.5605 10.9355L13.4473 16.6289L11.7725 14.7148L11.6836 14.623C11.2204 14.1908 10.4959 14.1706 10.0088 14.5967C9.52187 15.0229 9.4447 15.7443 9.81152 16.2607L9.8916 16.3613L12.1895 18.9873L12.334 19.1348C13.0925 19.8213 14.304 19.713 14.9209 18.8594L19.5869 12.3984C19.9908 11.8389 19.8651 11.0575 19.3057 10.6533Z" fill="url(#paint0_linear_806_14708)"/>
<defs>
<linearGradient id="paint0_linear_806_14708" x1="-34.7279" y1="47.5763" x2="73.9487" y2="51.9734" gradientUnits="userSpaceOnUse">
<stop stop-color="#FD6E48"/>
<stop offset="0.533654" stop-color="#FF6BC8"/>
<stop offset="0.9743" stop-color="#9427FF"/>
</linearGradient>
</defs>
</svg>
