<svg width="40" height="40" viewBox="0 0 40 40" fill="none" xmlns="http://www.w3.org/2000/svg">
<path d="M40 13.0295C40 16.0978 37.5127 18.5851 34.4444 18.5851C31.3762 18.5851 28.8889 16.0978 28.8889 13.0295C28.8889 9.96127 31.3762 7.47396 34.4444 7.47396C37.5127 7.47396 40 9.96127 40 13.0295Z" fill="url(#paint0_linear_394_1747)"/>
<path d="M22.2222 11.1111C22.2222 17.2476 17.2476 22.2222 11.1111 22.2222C4.97461 22.2222 0 17.2476 0 11.1111C0 4.97461 4.97461 0 11.1111 0C17.2476 0 22.2222 4.97461 22.2222 11.1111Z" fill="url(#paint1_linear_394_1747)"/>
<path d="M35.4864 32.2222C35.4864 36.5178 32.0042 40 27.7086 40C23.4131 40 19.9308 36.5178 19.9308 32.2222C19.9308 27.9267 23.4131 24.4444 27.7086 24.4444C32.0042 24.4444 35.4864 27.9267 35.4864 32.2222Z" fill="url(#paint2_linear_394_1747)"/>
<defs>
<linearGradient id="paint0_linear_394_1747" x1="-46.3038" y1="63.4351" x2="98.5983" y2="69.2978" gradientUnits="userSpaceOnUse">
<stop stop-color="#FD6E48"/>
<stop offset="0.533654" stop-color="#FF6BC8"/>
<stop offset="0.9743" stop-color="#9427FF"/>
</linearGradient>
<linearGradient id="paint1_linear_394_1747" x1="-46.3038" y1="63.4351" x2="98.5983" y2="69.2978" gradientUnits="userSpaceOnUse">
<stop stop-color="#FD6E48"/>
<stop offset="0.533654" stop-color="#FF6BC8"/>
<stop offset="0.9743" stop-color="#9427FF"/>
</linearGradient>
<linearGradient id="paint2_linear_394_1747" x1="-46.3038" y1="63.4351" x2="98.5983" y2="69.2978" gradientUnits="userSpaceOnUse">
<stop stop-color="#FD6E48"/>
<stop offset="0.533654" stop-color="#FF6BC8"/>
<stop offset="0.9743" stop-color="#9427FF"/>
</linearGradient>
</defs>
</svg>
