<svg width="14" height="12" viewBox="0 0 14 12" fill="none" xmlns="http://www.w3.org/2000/svg">
<path d="M0.571289 4.2C0.571289 3.0799 0.571289 2.51984 0.789276 2.09202C0.981023 1.71569 1.28698 1.40973 1.66331 1.21799C2.09113 1 2.65118 1 3.77129 1H10.2284C11.3485 1 11.9086 1 12.3364 1.21799C12.7127 1.40973 13.0187 1.71569 13.2104 2.09202C13.4284 2.51984 13.4284 3.0799 13.4284 4.2V7.8C13.4284 8.9201 13.4284 9.48016 13.2104 9.90798C13.0187 10.2843 12.7127 10.5903 12.3364 10.782C11.9086 11 11.3485 11 10.2284 11H3.77129C2.65118 11 2.09113 11 1.66331 10.782C1.28698 10.5903 0.981023 10.2843 0.789276 9.90798C0.571289 9.48016 0.571289 8.92011 0.571289 7.8V4.2Z" fill="#595959"/>
<path fill-rule="evenodd" clip-rule="evenodd" d="M0.571289 3.14286L5.22482 6.24521C5.86633 6.67289 6.18709 6.88673 6.53378 6.96981C6.84016 7.04323 7.15956 7.04323 7.46594 6.96981C7.81263 6.88673 8.13339 6.67289 8.7749 6.24521L13.4284 3.14286" fill="#595959"/>
<path d="M0.571289 3.14286L5.22482 6.24521C5.86633 6.67289 6.18709 6.88673 6.53378 6.96981C6.84016 7.04323 7.15956 7.04323 7.46594 6.96981C7.81263 6.88673 8.13339 6.67289 8.7749 6.24521L13.4284 3.14286M3.77129 11H10.2284C11.3485 11 11.9086 11 12.3364 10.782C12.7127 10.5903 13.0187 10.2843 13.2104 9.90798C13.4284 9.48016 13.4284 8.92011 13.4284 7.8V4.2C13.4284 3.0799 13.4284 2.51984 13.2104 2.09202C13.0187 1.71569 12.7127 1.40973 12.3364 1.21799C11.9086 1 11.3485 1 10.2284 1H3.77129C2.65118 1 2.09113 1 1.66331 1.21799C1.28698 1.40973 0.981023 1.71569 0.789276 2.09202C0.571289 2.51984 0.571289 3.07989 0.571289 4.2V7.8C0.571289 8.92011 0.571289 9.48016 0.789276 9.90798C0.981023 10.2843 1.28698 10.5903 1.66331 10.782C2.09113 11 2.65118 11 3.77129 11Z" stroke="#F5F4FA" stroke-linecap="round" stroke-linejoin="round"/>
</svg>
