<svg width="12" height="12" viewBox="0 0 12 12" fill="none" xmlns="http://www.w3.org/2000/svg">
<path d="M3.6377 0C6.82376 1.3922 6.8417 5.55324 6.8418 5.59961C6.8585 5.56766 7.91138 3.56649 10.0459 2.59961C10.7358 4.62752 11.666 6.84367 10.8477 8.80176C10.0627 10.6799 8.2061 11.9998 6.04102 12C3.16549 12 0.833984 9.67168 0.833984 6.7998C0.834034 3.92807 1.92787 2.75378 3.6377 0ZM2.66602 6.16699C2.38987 6.16699 2.16602 6.39085 2.16602 6.66699C2.16619 8.78382 3.88219 10.4998 5.99902 10.5C6.27506 10.5 6.49885 10.276 6.49902 10C6.49885 9.72401 6.27506 9.5 5.99902 9.5C4.43448 9.49982 3.16619 8.23154 3.16602 6.66699C3.16602 6.39085 2.94216 6.16699 2.66602 6.16699Z" fill="white"/>
</svg>
