<svg width="32" height="29" viewBox="0 0 32 29" fill="none" xmlns="http://www.w3.org/2000/svg">
<path d="M6.65723 0C7.52248 0 8.35852 0.315791 9.00781 0.887695L13.0479 4.44629C13.6971 5.01795 14.5324 5.33297 15.3975 5.33301H28.4443C30.4079 5.33302 31.9999 6.92511 32 8.88867V24.8887C32 26.8523 30.408 28.4443 28.4443 28.4443H3.55566C1.59199 28.4443 0 26.8523 0 24.8887V3.55566C0 1.59199 1.59199 0 3.55566 0H6.65723ZM19.8311 12.3193C19.2715 11.9156 18.4901 12.0422 18.0859 12.6016L14.9795 16.9014L13.8467 15.6064C13.3921 15.0873 12.6024 15.0349 12.083 15.4893C11.5963 15.9154 11.5192 16.6359 11.8857 17.1523L11.9658 17.2529L13.8037 19.3535C14.5014 20.1509 15.7594 20.0922 16.3799 19.2334L20.1133 14.0645C20.5169 13.5048 20.3905 12.7234 19.8311 12.3193Z" fill="url(#paint0_linear_806_14725)"/>
<defs>
<linearGradient id="paint0_linear_806_14725" x1="-37.0431" y1="45.1092" x2="78.8284" y2="50.3834" gradientUnits="userSpaceOnUse">
<stop stop-color="#FD6E48"/>
<stop offset="0.533654" stop-color="#FF6BC8"/>
<stop offset="0.9743" stop-color="#9427FF"/>
</linearGradient>
</defs>
</svg>
