<svg width="12" height="14" viewBox="0 0 12 14" fill="none" xmlns="http://www.w3.org/2000/svg">
<path d="M6 0.5C7.46412 0.5 8.87001 1.07454 9.90723 2.09863C10.8462 3.02587 11.3355 4.06292 11.4648 5.13965C11.5932 6.2082 11.3626 7.28034 10.9248 8.28516C10.0536 10.2846 8.32327 12.1038 6.66406 13.2871C6.26688 13.5703 5.73309 13.5703 5.33594 13.2871C3.67675 12.1038 1.9464 10.2845 1.0752 8.28516C0.637409 7.28037 0.406818 6.20817 0.535156 5.13965C0.664484 4.06295 1.15388 3.02585 2.09277 2.09863C3.12996 1.07452 4.53591 0.500049 6 0.5ZM6 3.83301C4.98784 3.83318 4.16734 4.6539 4.16699 5.66602C4.16699 6.67843 4.98763 7.49982 6 7.5C7.01246 7.49992 7.83398 6.67849 7.83398 5.66602C7.83363 4.65384 7.01224 3.83308 6 3.83301Z" fill="#96989C"/>
</svg>
