<svg width="10" height="12" viewBox="0 0 10 12" fill="none" xmlns="http://www.w3.org/2000/svg">
<path d="M5 0C6.33358 0 7.61268 0.523001 8.55566 1.4541C12.0097 4.86465 8.59219 9.58524 5.37305 11.8809C5.14971 12.0399 4.85028 12.0399 4.62695 11.8809C1.40782 9.58525 -2.00968 4.86465 1.44434 1.4541C2.38731 0.52301 3.66643 9.84971e-06 5 0ZM5 3.33301C4.26379 3.3332 3.66699 3.93073 3.66699 4.66699C3.66721 5.40306 4.26392 5.9998 5 6C5.73624 6 6.33376 5.40319 6.33398 4.66699C6.33398 3.93061 5.73638 3.33301 5 3.33301Z" fill="#595959"/>
</svg>
