<svg width="11" height="13" viewBox="0 0 11 13" fill="none" xmlns="http://www.w3.org/2000/svg">
<path d="M5.72848 11.8904C5.53182 12.0365 5.26818 12.0365 5.07152 11.8904C2.23868 9.78611 -0.768464 5.45934 2.27113 2.333C3.10096 1.4795 4.22645 1 5.4 1C6.57355 1 7.69904 1.4795 8.52887 2.333C11.5685 5.45934 8.56133 9.78611 5.72848 11.8904Z" stroke="#96989C" stroke-linecap="round" stroke-linejoin="round"/>
<path d="M5.4 6.5C6.04801 6.5 6.57333 5.95279 6.57333 5.27778C6.57333 4.60276 6.04801 4.05556 5.4 4.05556C4.75199 4.05556 4.22667 4.60276 4.22667 5.27778C4.22667 5.95279 4.75199 6.5 5.4 6.5Z" stroke="#96989C" stroke-linecap="round" stroke-linejoin="round"/>
</svg>
