<svg width="16" height="16" viewBox="0 0 16 16" fill="none" xmlns="http://www.w3.org/2000/svg">
<g opacity="0.8">
<path d="M8.37327 13.8805C8.14979 14.0398 7.85021 14.0398 7.62673 13.8805C4.40759 11.5849 0.990381 6.86474 4.44447 3.45419C5.38745 2.52309 6.66642 2 8 2C9.33358 2 10.6125 2.52309 11.5555 3.45419C15.0096 6.86474 11.5924 11.5849 8.37327 13.8805Z" fill="#595959"/>
<path d="M8.00033 8.00016C8.73671 8.00016 9.33366 7.40321 9.33366 6.66683C9.33366 5.93045 8.73671 5.3335 8.00033 5.3335C7.26395 5.3335 6.66699 5.93045 6.66699 6.66683C6.66699 7.40321 7.26395 8.00016 8.00033 8.00016Z" fill="#F5F4FA"/>
</g>
</svg>
