<svg width="16" height="16" viewBox="0 0 16 16" fill="none" xmlns="http://www.w3.org/2000/svg">
<g opacity="0.8">
<path d="M8 1.5C9.46412 1.5 10.87 2.07454 11.9072 3.09863C12.8462 4.02587 13.3355 5.06292 13.4648 6.13965C13.5932 7.2082 13.3626 8.28034 12.9248 9.28516C12.0536 11.2846 10.3233 13.1038 8.66406 14.2871C8.26688 14.5703 7.73309 14.5703 7.33594 14.2871C5.67675 13.1038 3.9464 11.2845 3.0752 9.28516C2.63741 8.28037 2.40682 7.20817 2.53516 6.13965C2.66448 5.06295 3.15388 4.02585 4.09277 3.09863C5.12996 2.07452 6.53591 1.50005 8 1.5ZM8 4.83301C6.98784 4.83318 6.16734 5.6539 6.16699 6.66602C6.16699 7.67843 6.98763 8.49982 8 8.5C9.01246 8.49992 9.83398 7.67849 9.83398 6.66602C9.83363 5.65384 9.01224 4.83308 8 4.83301Z" fill="#96989C"/>
</g>
</svg>
