<svg width="32" height="32" viewBox="0 0 32 32" fill="none" xmlns="http://www.w3.org/2000/svg">
<path d="M10.9766 23.9701C11.9017 25.113 12.7436 26.3168 13.4964 27.5729C14.139 28.7544 14.4069 29.5554 14.8767 30.9788C15.1647 31.7652 15.425 31.9999 15.9847 31.9999C16.5947 31.9999 16.8714 31.6006 17.0852 30.9831C17.5292 29.6389 17.8776 28.6129 18.4272 27.6436C19.5057 25.7721 20.8457 24.1091 22.1625 22.5107C22.5191 22.0584 24.8238 19.423 25.8614 17.3436C25.8614 17.3436 27.1367 15.0594 27.1367 11.8693C27.1367 8.88525 25.879 6.81561 25.879 6.81561L22.2581 7.75564L20.059 13.3702L19.5151 14.1444L19.4063 14.2846L19.2617 14.4602L19.0076 14.7406L18.6448 15.0923L16.6865 16.6389L11.7909 19.3791L10.9766 23.9701Z" fill="#4C9EFF"/>
<path d="M5.94531 16.9595C7.14013 19.6053 9.44423 21.9309 11.0032 23.9719L19.2832 14.4638C19.2832 14.4638 18.1167 15.9427 16.0006 15.9427C13.6437 15.9427 11.7395 14.1181 11.7395 11.8175C11.7395 10.2398 12.7187 9.15588 12.7187 9.15588L7.09799 10.6159L5.94531 16.9595Z" fill="#4C9EFF"/>
<path d="M19.3648 1.48877C22.1148 2.34832 24.4685 4.15278 25.8923 6.81374L19.2749 14.4583C19.2749 14.4583 20.254 13.3549 20.254 11.787C20.254 9.43264 18.209 7.6739 15.9998 7.6739C13.9108 7.6739 12.7109 9.15038 12.7109 9.15038V4.33444L19.3648 1.48877Z" fill="#4C9EFF"/>
<path d="M7.46094 4.86671C9.10349 2.96167 11.9937 0.999939 15.9781 0.999939C17.9112 0.999939 19.3676 1.4919 19.3676 1.4919L12.7143 9.15473H8.00049L7.46094 4.86671Z" fill="#4C9EFF"/>
<path d="M5.9586 16.9594C5.9586 16.9594 4.85938 14.8727 4.85938 11.8496C4.85938 8.99238 6.00514 6.49479 7.47539 4.86652L12.7326 9.15514L5.9586 16.9594Z" fill="#4C9EFF"/>
</svg>
