<svg width="16" height="16" viewBox="0 0 16 16" fill="none" xmlns="http://www.w3.org/2000/svg">
<path fill-rule="evenodd" clip-rule="evenodd" d="M8.02719 13.4333C7.04052 13.4333 6.07385 13.1666 5.22719 12.6666L5.02719 12.5466L2.94719 13.0933L3.50052 11.0666L3.36719 10.86C2.81889 9.98466 2.5278 8.9728 2.52719 7.93995C2.52719 4.91329 4.99385 2.44662 8.02052 2.44662C9.48719 2.44662 10.8672 3.01995 11.9005 4.05995C12.4123 4.5692 12.8178 5.17498 13.0936 5.84217C13.3694 6.50936 13.51 7.22468 13.5072 7.94662C13.5205 10.9733 11.0539 13.4333 8.02719 13.4333ZM9.91385 8.78662C10.0605 8.84662 10.8739 9.24662 11.0405 9.32662C11.2072 9.40662 11.3072 9.43995 11.3539 9.51329C11.4005 9.58662 11.4005 9.91329 11.2605 10.3C11.1272 10.6866 10.4672 11.04 10.1472 11.0866C9.86052 11.1266 9.50052 11.1466 9.10719 11.02C8.86719 10.9466 8.56052 10.8466 8.16719 10.6733C6.51385 9.95996 5.42719 8.29329 5.34719 8.17996L5.34589 8.17823C5.261 8.06506 4.67385 7.28237 4.67385 6.47329C4.67385 5.65995 5.10052 5.25995 5.24719 5.09329C5.40052 4.92662 5.57385 4.88662 5.68719 4.88662H6.00719C6.10719 4.89329 6.24719 4.85329 6.38052 5.17329C6.51385 5.50662 6.84719 6.31995 6.88719 6.39995C6.92719 6.47995 6.95385 6.57329 6.90052 6.68662C6.84719 6.79329 6.81385 6.86662 6.73385 6.95995C6.65385 7.05329 6.56052 7.17329 6.48719 7.24662C6.40052 7.33329 6.32052 7.41996 6.41385 7.58662C6.51385 7.75329 6.84052 8.29329 7.33385 8.73329C7.96052 9.29329 8.49385 9.47329 8.66052 9.55329C8.82719 9.63996 8.92719 9.62662 9.02052 9.51329C9.11385 9.40662 9.42719 9.03329 9.54052 8.86662C9.65385 8.70662 9.76052 8.73329 9.91385 8.78662Z" fill="#4C9EFF"/>
<path fill-rule="evenodd" clip-rule="evenodd" d="M10.5589 1.83353C11.3612 2.1666 12.0892 2.65603 12.7005 3.27329C13.9472 4.51995 14.6339 6.17996 14.6339 7.94662C14.6339 11.5866 11.6672 14.5533 8.02719 14.5533C6.92052 14.5533 5.83385 14.2733 4.86719 13.7466L1.36719 14.6666L2.30052 11.24C1.72719 10.24 1.42052 9.10662 1.42052 7.93995C1.42052 4.29995 4.38719 1.33329 8.02719 1.33329C8.89591 1.33041 9.75652 1.50046 10.5589 1.83353ZM5.22719 12.6666C6.07385 13.1666 7.04052 13.4333 8.02719 13.4333C11.0539 13.4333 13.5205 10.9733 13.5072 7.94662C13.51 7.22468 13.3694 6.50936 13.0936 5.84217C12.8178 5.17498 12.4123 4.5692 11.9005 4.05995C10.8672 3.01995 9.48719 2.44662 8.02052 2.44662C4.99385 2.44662 2.52719 4.91329 2.52719 7.93995C2.5278 8.9728 2.81889 9.98466 3.36719 10.86L3.50052 11.0666L2.94719 13.0933L5.02719 12.5466L5.22719 12.6666Z" fill="#4C9EFF"/>
</svg>
