<svg width="12" height="12" viewBox="0 0 12 12" fill="none" xmlns="http://www.w3.org/2000/svg">
<path fill-rule="evenodd" clip-rule="evenodd" d="M2.34316 1.45419C3.31309 0.523087 4.62859 0 6.00028 0C7.37197 0 8.68747 0.523087 9.6574 1.45419C13.2102 4.86474 9.69534 9.58485 6.38422 11.8805C6.15435 12.0398 5.84621 12.0398 5.61634 11.8805C2.30522 9.58485 -1.20961 4.86474 2.34316 1.45419ZM6.00028 6C6.7577 6 7.37171 5.40305 7.37171 4.66667C7.37171 3.93029 6.7577 3.33333 6.00028 3.33333C5.24286 3.33333 4.62885 3.93029 4.62885 4.66667C4.62885 5.40305 5.24286 6 6.00028 6Z" fill="#96989C"/>
</svg>
