<svg width="32" height="38" viewBox="0 0 32 38" fill="none" xmlns="http://www.w3.org/2000/svg">
<path d="M31.0096 27.6051C28.5785 33.7097 22.8291 38 16.1237 38C7.21882 38 0 30.4336 0 21.1C0 13.6721 2.14505 9.73844 5.68981 3.93079C6.64504 2.36576 7.12266 1.58324 8.14293 1.06953C8.84656 0.715245 10.2712 0.578701 11.0293 0.792883C12.1286 1.10345 12.5188 1.53162 13.2994 2.38796C18.6042 8.20819 18.6042 17.2 18.6042 17.2C18.6042 17.2 19.9428 14.4963 22.6584 11.7205C23.8352 10.5176 24.4237 9.91618 25.7042 9.69851C26.6074 9.545 28.1365 9.93593 28.8552 10.504C29.8742 11.3096 30.1634 12.3391 30.7417 14.398C32.0031 18.8881 32.6735 23.427 31.0096 27.6051Z" fill="url(#paint0_linear_1012_9131)"/>
<defs>
<linearGradient id="paint0_linear_1012_9131" x1="-37.0431" y1="60.8492" x2="78.9406" y2="64.6996" gradientUnits="userSpaceOnUse">
<stop stop-color="#FD6E48"/>
<stop offset="0.533654" stop-color="#FF6BC8"/>
<stop offset="0.9743" stop-color="#9427FF"/>
</linearGradient>
</defs>
</svg>
