<svg width="40" height="40" viewBox="0 0 40 40" fill="none" xmlns="http://www.w3.org/2000/svg">
<path d="M22.8292 34.7461C23.9585 37.1701 24.5231 38.3821 24.9371 38.584C25.3635 38.792 25.6512 38.7919 26.0775 38.5837C26.4914 38.3815 27.0545 37.171 28.1806 34.7499C29.8986 31.0563 32.1069 28.7155 35.3955 26.8883C37.1537 25.9115 38.0328 25.4231 38.2101 25.0324C38.3918 24.6321 38.3921 24.361 38.2112 23.9603C38.0347 23.5692 37.1572 23.0793 35.4022 22.0993C32.0045 20.2022 29.8241 17.8192 28.1672 14.2552C27.0404 11.8316 26.477 10.6197 26.063 10.4175C25.6367 10.2093 25.3485 10.2093 24.9222 10.4174C24.5081 10.6195 23.9452 11.8297 22.8194 14.2501C21.1014 17.9437 18.8931 20.2845 15.6045 22.1117C13.8459 23.0887 12.9667 23.5772 12.7893 23.9677C12.6075 24.368 12.6071 24.6386 12.7877 25.0394C12.9639 25.4304 13.8415 25.9214 15.5966 26.9034C18.9893 28.8016 21.1716 31.188 22.8292 34.7461Z" fill="black"/>
<path d="M22.8292 34.7461C23.9585 37.1701 24.5231 38.3821 24.9371 38.584C25.3635 38.792 25.6512 38.7919 26.0775 38.5837C26.4914 38.3815 27.0545 37.171 28.1806 34.7499C29.8986 31.0563 32.1069 28.7155 35.3955 26.8883C37.1537 25.9115 38.0328 25.4231 38.2101 25.0324C38.3918 24.6321 38.3921 24.361 38.2112 23.9603C38.0347 23.5692 37.1572 23.0793 35.4022 22.0993C32.0045 20.2022 29.8241 17.8192 28.1672 14.2552C27.0404 11.8316 26.477 10.6197 26.063 10.4175C25.6367 10.2093 25.3485 10.2093 24.9222 10.4174C24.5081 10.6195 23.9452 11.8297 22.8194 14.2501C21.1014 17.9437 18.8931 20.2845 15.6045 22.1117C13.8459 23.0887 12.9667 23.5772 12.7893 23.9677C12.6075 24.368 12.6071 24.6386 12.7877 25.0394C12.9639 25.4304 13.8415 25.9214 15.5966 26.9034C18.9893 28.8016 21.1716 31.188 22.8292 34.7461Z" fill="url(#paint0_linear_1012_9118)"/>
<path d="M7.86696 17.0945C8.61085 18.5742 8.9828 19.3141 9.20059 19.4171C9.43553 19.5283 9.56452 19.5283 9.79944 19.4171C10.0172 19.314 10.3891 18.5742 11.1328 17.0944C12.174 15.023 13.565 13.5485 15.4305 12.4688C16.5555 11.8176 17.118 11.492 17.2104 11.2844C17.3104 11.0596 17.3104 10.9404 17.2104 10.7156C17.118 10.508 16.5555 10.1824 15.4305 9.53125C13.565 8.45145 12.174 6.977 11.1328 4.90556C10.3905 3.42859 10.0193 2.6901 9.80152 2.58703C9.5666 2.47584 9.43762 2.47583 9.20268 2.58699C8.98489 2.69003 8.61349 3.42868 7.8707 4.90599C6.85389 6.92826 5.47665 8.42143 3.56511 9.52875C2.43973 10.1807 1.87704 10.5066 1.7848 10.7142C1.6849 10.9391 1.68493 11.0583 1.78497 11.2831C1.87734 11.4906 2.44022 11.8162 3.56598 12.4675C5.43305 13.5475 6.82511 15.0222 7.86696 17.0945Z" fill="black"/>
<path d="M7.86696 17.0945C8.61085 18.5742 8.9828 19.3141 9.20059 19.4171C9.43553 19.5283 9.56452 19.5283 9.79944 19.4171C10.0172 19.314 10.3891 18.5742 11.1328 17.0944C12.174 15.023 13.565 13.5485 15.4305 12.4688C16.5555 11.8176 17.118 11.492 17.2104 11.2844C17.3104 11.0596 17.3104 10.9404 17.2104 10.7156C17.118 10.508 16.5555 10.1824 15.4305 9.53125C13.565 8.45145 12.174 6.977 11.1328 4.90556C10.3905 3.42859 10.0193 2.6901 9.80152 2.58703C9.5666 2.47584 9.43762 2.47583 9.20268 2.58699C8.98489 2.69003 8.61349 3.42868 7.8707 4.90599C6.85389 6.92826 5.47665 8.42143 3.56511 9.52875C2.43973 10.1807 1.87704 10.5066 1.7848 10.7142C1.6849 10.9391 1.68493 11.0583 1.78497 11.2831C1.87734 11.4906 2.44022 11.8162 3.56598 12.4675C5.43305 13.5475 6.82511 15.0222 7.86696 17.0945Z" fill="url(#paint1_linear_1012_9118)"/>
<defs>
<linearGradient id="paint0_linear_1012_9118" x1="-55.609" y1="69.4944" x2="106.606" y2="75.9931" gradientUnits="userSpaceOnUse">
<stop stop-color="#FD6E48"/>
<stop offset="0.533654" stop-color="#FF6BC8"/>
<stop offset="0.9743" stop-color="#9427FF"/>
</linearGradient>
<linearGradient id="paint1_linear_1012_9118" x1="-57.1852" y1="76.7565" x2="121.757" y2="84.146" gradientUnits="userSpaceOnUse">
<stop stop-color="#FD6E48"/>
<stop offset="0.533654" stop-color="#FF6BC8"/>
<stop offset="0.9743" stop-color="#9427FF"/>
</linearGradient>
</defs>
</svg>
