<svg width="34" height="34" viewBox="0 0 34 34" fill="none" xmlns="http://www.w3.org/2000/svg">
<path d="M21.0305 7.53995L27.446 1.12446C28.9453 -0.374818 31.3763 -0.374818 32.8755 1.12446C34.3748 2.62373 34.3748 5.05472 32.8755 6.55399L26.46 12.9695L29.9312 30.2421C30.3762 32.4536 26.0898 35.5309 24.9492 32.6053L19.8663 19.5632L13.2688 26.1608C13.5922 30.0167 13.6606 31.2973 10.9579 34L6.84939 27.1506L0 23.0421C2.70273 20.3394 3.98325 20.4078 7.83922 20.7312L14.4368 14.1337L1.39661 9.05085C-1.53089 7.91117 1.54528 3.62355 3.75787 4.06876L21.0305 7.53995Z" fill="url(#paint0_linear_394_1760)"/>
<defs>
<linearGradient id="paint0_linear_394_1760" x1="-39.3583" y1="53.9198" x2="83.8086" y2="58.9032" gradientUnits="userSpaceOnUse">
<stop stop-color="#FD6E48"/>
<stop offset="0.533654" stop-color="#FF6BC8"/>
<stop offset="0.9743" stop-color="#9427FF"/>
</linearGradient>
</defs>
</svg>
