<svg width="18" height="18" viewBox="0 0 18 18" fill="none" xmlns="http://www.w3.org/2000/svg">
<path d="M9.08096 10.0614C13.4619 10.0184 17 6.48492 17 2.13238C17 1.74792 16.9724 1.36984 16.919 1C12.5381 1.04305 9 4.57652 9 8.92906C9 9.31353 9.02761 9.6916 9.08096 10.0614Z" fill="#595959"/>
<path d="M8.91904 10.0614C4.53805 10.0184 1 6.48492 1 2.13238C1 1.74792 1.02761 1.36984 1.08096 1C5.46195 1.04305 9 4.57652 9 8.92906C9 9.31353 8.97239 9.6916 8.91904 10.0614Z" fill="#595959"/>
<path d="M9 9.07054V17M9 8.92906C9 4.57652 12.5381 1.04305 16.919 1C16.9724 1.36984 17 1.74792 17 2.13238C17 6.48492 13.4619 10.0184 9.08096 10.0614C9.02761 9.6916 9 9.31353 9 8.92906ZM9 8.92906C9 4.57652 5.46195 1.04305 1.08096 1C1.02761 1.36984 1 1.74792 1 2.13238C1 6.48492 4.53805 10.0184 8.91904 10.0614C8.97239 9.6916 9 9.31353 9 8.92906Z" stroke="#595959" stroke-width="1.5" stroke-linecap="round" stroke-linejoin="round"/>
</svg>
