<svg width="38" height="39" viewBox="0 0 38 39" fill="none" xmlns="http://www.w3.org/2000/svg">
<path d="M24.4893 0.5C29.2183 0.5 31.5833 0.499556 33.3896 1.41992C34.9785 2.2295 36.2705 3.52153 37.0801 5.11035C38.0004 6.91667 38 9.28166 38 14.0107V24.9893C38 29.7183 38.0004 32.0833 37.0801 33.8896C36.2705 35.4785 34.9785 36.7705 33.3896 37.5801C31.5833 38.5004 29.2183 38.5 24.4893 38.5H13.5107C8.78166 38.5 6.41667 38.5004 4.61035 37.5801C3.02153 36.7705 1.7295 35.4785 0.919922 33.8896C-0.00044361 32.0833 1.03415e-09 29.7183 4.09843e-10 24.9893V14.0107C1.03057e-09 9.28166 -0.000443679 6.91667 0.919922 5.11035C1.7295 3.52153 3.02153 2.2295 4.61035 1.41992C6.41667 0.499556 8.78166 0.5 13.5107 0.5H24.4893ZM19.167 25.3477C18.2698 25.3477 17.5171 25.6344 16.9102 26.208C16.3034 26.7567 16 27.468 16 28.3408C16.0001 28.8892 16.1318 29.4004 16.3955 29.874C16.6858 30.323 17.0689 30.6725 17.5439 30.9219C18.0453 31.1962 18.5865 31.333 19.167 31.333C19.7738 31.333 20.3151 31.1962 20.79 30.9219C21.2649 30.6725 21.6336 30.3229 21.8975 29.874C22.1877 29.4003 22.3329 28.8894 22.333 28.3408C22.333 27.4679 22.0298 26.7567 21.4229 26.208C20.816 25.6344 20.0641 25.3477 19.167 25.3477ZM19.167 6C17.9647 6 16.9894 6.97454 16.9893 8.17676V20.3271C16.9893 21.5294 17.9647 22.5039 19.167 22.5039C20.3692 22.5037 21.3437 21.5293 21.3438 20.3271V8.17676C21.3436 6.97465 20.3691 6.00018 19.167 6Z" fill="url(#paint0_linear_577_8531)"/>
<defs>
<linearGradient id="paint0_linear_577_8531" x1="-43.9886" y1="60.7633" x2="93.6684" y2="66.3329" gradientUnits="userSpaceOnUse">
<stop stop-color="#FD6E48"/>
<stop offset="0.533654" stop-color="#FF6BC8"/>
<stop offset="0.9743" stop-color="#9427FF"/>
</linearGradient>
</defs>
</svg>
