<svg width="34" height="35" viewBox="0 0 34 35" fill="none" xmlns="http://www.w3.org/2000/svg">
<path d="M16.0625 0.679688C17.0501 0.692188 17.994 1.08975 18.6924 1.78809L32.4785 15.5742C33.7498 16.8456 34.7289 19.2736 33.2783 20.7246L20.2246 33.7783C18.7736 35.2288 16.3455 34.2498 15.0742 32.9785L1.28809 19.1924C0.589752 18.494 0.192188 17.5501 0.179688 16.5625L0.405273 5.68359C0.43865 4.07601 0.456006 3.27156 0.776367 2.65234C1.05835 2.10752 1.50009 1.6617 2.04297 1.37598C2.65993 1.05129 3.46398 1.02901 5.07129 0.984375L16.0625 0.679688ZM10.2627 6.94824C9.47715 6.30745 8.3182 6.35367 7.58594 7.08594C6.85367 7.8182 6.80745 8.97715 7.44824 9.7627L7.58594 9.91406L11.5859 13.9141L11.7373 14.0518C12.5229 14.6926 13.6818 14.6463 14.4141 13.9141C15.1463 13.1818 15.1926 12.0229 14.5518 11.2373L14.4141 11.0859L10.4141 7.08594L10.2627 6.94824Z" fill="url(#paint0_linear_1641_5606)"/>
<defs>
<linearGradient id="paint0_linear_1641_5606" x1="-38.9709" y1="54.3148" x2="83.546" y2="59.2719" gradientUnits="userSpaceOnUse">
<stop stop-color="#FD6E48"/>
<stop offset="0.533654" stop-color="#FF6BC8"/>
<stop offset="0.9743" stop-color="#9427FF"/>
</linearGradient>
</defs>
</svg>
