<svg width="157" height="82" viewBox="0 0 157 82" fill="none" xmlns="http://www.w3.org/2000/svg">
<path opacity="0.5" d="M99.6479 -14.647C97.8292 -21.1583 89.4327 -23.1351 84.9002 -18.1191C82.431 -15.3866 80.0222 -12.5955 77.6762 -9.74724C70.2885 -0.778134 63.5235 8.75722 57.4596 18.8118C55.3853 22.2512 51.2168 23.9977 47.1168 23.1466C37.4413 21.1381 27.6572 19.6697 17.8235 18.7722C15.015 18.5159 12.2107 18.3064 9.41163 18.1431C2.4517 17.7373 -1.85114 24.7686 1.80238 30.5313C2.63578 31.8458 3.48044 33.1536 4.33628 34.4546C10.7361 44.1831 17.7605 53.5287 25.3689 62.4279C27.993 65.4973 28.3584 69.7892 26.2901 73.1411C19.8102 83.6427 14.1002 94.7225 9.2512 106.326C8.27871 108.653 7.34085 111.001 6.43836 113.37C4.03397 119.681 9.93184 125.925 16.7225 124.245C19.1465 123.646 21.5585 123.012 23.9578 122.342C34.9662 119.272 45.7078 115.474 56.1107 110.99C60.1483 109.25 64.977 110.386 67.8141 113.745C75.1239 122.399 83.0426 130.591 91.5252 138.25C93.374 139.919 95.2496 141.563 97.1515 143.181C102.48 147.713 110.544 144.756 111.207 138.036C111.457 135.513 111.665 132.993 111.833 130.476C112.669 117.929 112.502 105.465 111.388 93.1756C111.032 89.253 113.274 85.575 116.992 83.9987C127.771 79.4285 138.227 74.1983 148.295 68.3467C149.642 67.5642 150.981 66.7706 152.313 65.9659C158.154 62.4385 157.44 54.226 151.03 51.4842C148.452 50.3816 145.849 49.318 143.221 48.2944C134.02 44.7105 124.608 41.6597 115.053 39.1407C111.004 38.0733 108.052 34.6505 107.73 30.647C106.789 18.9432 104.989 7.39127 102.378 -3.93167C101.549 -7.52737 100.639 -11.1 99.6479 -14.647Z" fill="white"/>
</svg>
