<svg width="12" height="12" viewBox="0 0 12 12" fill="none" xmlns="http://www.w3.org/2000/svg">
<path d="M6 0C9.31371 0 12 2.68629 12 6C12 9.31371 9.31371 12 6 12C2.68629 12 0 9.31371 0 6C9.66384e-08 2.68629 2.68629 9.66416e-08 6 0ZM4.38281 7.45605C4.0562 7.26191 3.62868 7.34352 3.39746 7.65527C3.16644 7.96718 3.21336 8.39926 3.49414 8.65527L3.55371 8.7041L3.81934 8.88574C4.45493 9.2858 5.20114 9.51855 6 9.51855C6.91307 9.51855 7.75738 9.21468 8.44629 8.7041C8.77887 8.45747 8.84898 7.98798 8.60254 7.65527C8.35593 7.32277 7.8864 7.25271 7.55371 7.49902C7.10883 7.82878 6.57409 8.01855 6 8.01855C5.4976 8.01855 5.0254 7.87345 4.61719 7.61621L4.44629 7.49902L4.38281 7.45605ZM8.06836 3.44141C7.51607 3.44141 7.06836 3.88912 7.06836 4.44141C7.06844 4.99362 7.51612 5.44141 8.06836 5.44141C8.62038 5.44115 9.06828 4.99347 9.06836 4.44141C9.06836 3.88928 8.62043 3.44166 8.06836 3.44141ZM3.67871 3.40723C3.12653 3.40731 2.67876 3.85503 2.67871 4.40723C2.67871 4.95946 3.1265 5.40715 3.67871 5.40723C4.231 5.40723 4.67871 4.95951 4.67871 4.40723C4.67866 3.85498 4.23097 3.40723 3.67871 3.40723Z" fill="white"/>
</svg>
