<svg width="14" height="15" viewBox="0 0 14 15" fill="none" xmlns="http://www.w3.org/2000/svg">
<path d="M7.66426 0.889406C7.37819 0.370198 6.62181 0.370198 6.33574 0.889406C6.1799 1.17225 6.03039 1.45888 5.88738 1.74913C5.43705 2.66312 5.05125 3.61292 4.73572 4.59296C4.62779 4.9282 4.30709 5.16103 3.94004 5.17077C3.07385 5.19377 2.20925 5.26504 1.35188 5.38604C1.10702 5.4206 0.863459 5.45907 0.621269 5.50138C0.0190644 5.6066 -0.206902 6.29321 0.220733 6.71165C0.31828 6.8071 0.416654 6.90175 0.515844 6.99559C1.25758 7.69735 2.04492 8.35386 2.87314 8.96055C3.15879 9.1698 3.27622 9.52878 3.16704 9.85644C2.825 10.883 2.56027 11.9434 2.37956 13.0312C2.34332 13.2494 2.31045 13.4687 2.28102 13.689C2.20262 14.2759 2.83149 14.6904 3.37734 14.4106C3.57219 14.3107 3.76531 14.2081 3.95665 14.1028C4.83456 13.6195 5.67505 13.0795 6.47286 12.4877C6.78251 12.258 7.21749 12.258 7.52714 12.4877C8.32495 13.0795 9.16544 13.6195 10.0433 14.1028C10.2347 14.2081 10.4278 14.3107 10.6227 14.4106C11.1685 14.6904 11.7974 14.2759 11.719 13.689C11.6895 13.4687 11.6567 13.2494 11.6204 13.0312C11.4397 11.9434 11.175 10.883 10.833 9.85644C10.7238 9.52878 10.8412 9.1698 11.1269 8.96055C11.9551 8.35386 12.7424 7.69735 13.4842 6.99559C13.5833 6.90175 13.6817 6.8071 13.7793 6.71165C14.2069 6.29321 13.9809 5.6066 13.3787 5.50138C13.1365 5.45907 12.893 5.4206 12.6481 5.38604C11.7907 5.26504 10.9261 5.19377 10.06 5.17077C9.69291 5.16103 9.37221 4.92819 9.26428 4.59296C8.94875 3.61292 8.56295 2.66312 8.11262 1.74913C7.96961 1.45888 7.8201 1.17225 7.66426 0.889406Z" fill="white"/>
</svg>
