<svg width="14" height="14" viewBox="0 0 14 14" fill="none" xmlns="http://www.w3.org/2000/svg">
    <path
        d="M7.66426 0.389406C7.37819 -0.129802 6.62181 -0.129802 6.33574 0.389406C6.1799 0.672249 6.03039 0.958882 5.88738 1.24913C5.43705 2.16312 5.05125 3.11292 4.73572 4.09296C4.62779 4.4282 4.30709 4.66103 3.94004 4.67077C3.07385 4.69377 2.20925 4.76504 1.35188 4.88604C1.10702 4.9206 0.863459 4.95907 0.621269 5.00138C0.0190644 5.1066 -0.206902 5.79321 0.220733 6.21165C0.31828 6.3071 0.416654 6.40175 0.515844 6.49559C1.25758 7.19735 2.04492 7.85386 2.87314 8.46055C3.15879 8.6698 3.27622 9.02878 3.16704 9.35644C2.825 10.383 2.56027 11.4434 2.37956 12.5312C2.34332 12.7494 2.31045 12.9687 2.28102 13.189C2.20262 13.7759 2.83149 14.1904 3.37734 13.9106C3.57219 13.8107 3.76531 13.7081 3.95665 13.6028C4.83456 13.1195 5.67505 12.5795 6.47286 11.9877C6.78251 11.758 7.21749 11.758 7.52714 11.9877C8.32495 12.5795 9.16544 13.1195 10.0433 13.6028C10.2347 13.7081 10.4278 13.8107 10.6227 13.9106C11.1685 14.1904 11.7974 13.7759 11.719 13.189C11.6895 12.9687 11.6567 12.7494 11.6204 12.5312C11.4397 11.4434 11.175 10.383 10.833 9.35644C10.7238 9.02878 10.8412 8.6698 11.1269 8.46055C11.9551 7.85386 12.7424 7.19735 13.4842 6.49559C13.5833 6.40175 13.6817 6.3071 13.7793 6.21165C14.2069 5.79321 13.9809 5.1066 13.3787 5.00138C13.1365 4.95907 12.893 4.9206 12.6481 4.88604C11.7907 4.76504 10.9261 4.69377 10.06 4.67077C9.69291 4.66103 9.37221 4.42819 9.26428 4.09296C8.94875 3.11292 8.56295 2.16312 8.11262 1.24913C7.96961 0.958882 7.8201 0.672249 7.66426 0.389406Z"
        fill="#EE8A2C"/>
</svg>
