<svg width="18" height="19" viewBox="0 0 18 19" fill="none" xmlns="http://www.w3.org/2000/svg">
<path d="M9.85405 1.00067C9.48625 0.333112 8.51375 0.333112 8.14595 1.00067C7.94559 1.36432 7.75335 1.73285 7.56949 2.10602C6.99049 3.28115 6.49446 4.50233 6.08879 5.76238C5.95002 6.19339 5.53768 6.49275 5.06577 6.50528C3.9521 6.53484 2.84047 6.62648 1.73814 6.78206C1.42331 6.82649 1.11016 6.87595 0.798774 6.93035C0.0245114 7.06562 -0.266017 7.94841 0.283799 8.4864C0.409217 8.60913 0.535698 8.73082 0.663228 8.85148C1.61689 9.75373 2.62918 10.5978 3.69404 11.3779C4.06131 11.6469 4.21228 12.1084 4.07191 12.5297C3.63214 13.8496 3.29178 15.213 3.05943 16.6116C3.01284 16.8921 2.97058 17.174 2.93274 17.4573C2.83193 18.2119 3.64048 18.7448 4.3423 18.385C4.59281 18.2566 4.84111 18.1247 5.08712 17.9893C6.21586 17.3679 7.29649 16.6736 8.32225 15.9128C8.72037 15.6175 9.27963 15.6175 9.67775 15.9128C10.7035 16.6736 11.7841 17.3679 12.9129 17.9893C13.1589 18.1247 13.4072 18.2566 13.6577 18.385C14.3595 18.7448 15.1681 18.2119 15.0673 17.4573C15.0294 17.174 14.9872 16.8921 14.9406 16.6116C14.7082 15.213 14.3679 13.8496 13.9281 12.5297C13.7877 12.1084 13.9387 11.6469 14.306 11.3779C15.3708 10.5978 16.3831 9.75373 17.3368 8.85148C17.4643 8.73082 17.5908 8.60913 17.7162 8.4864C18.266 7.94841 17.9755 7.06562 17.2012 6.93035C16.8898 6.87595 16.5767 6.82649 16.2619 6.78206C15.1595 6.62648 14.0479 6.53484 12.9342 6.50528C12.4623 6.49275 12.05 6.19339 11.9112 5.76237C11.5055 4.50233 11.0095 3.28115 10.4305 2.10602C10.2466 1.73285 10.0544 1.36432 9.85405 1.00067Z" fill="#EE8A2C"/>
</svg>
