<svg width="16" height="16" viewBox="0 0 16 16" fill="none" xmlns="http://www.w3.org/2000/svg">
<g opacity="0.8">
<path d="M9.46664 10.1609C8.0474 11.6546 4.42715 8.06686 5.85182 6.56742C6.72167 5.65192 5.73904 4.60567 5.19514 3.83664C4.17436 2.39334 1.93346 4.38601 2.00152 5.65359C2.21614 9.65087 6.54017 14.3879 10.7274 13.9747C12.0374 13.8455 13.5424 11.4798 12.0399 10.6152C11.2886 10.1829 10.2573 9.3287 9.46664 10.1609Z" fill="#96989C" stroke="#96989C" stroke-linecap="round" stroke-linejoin="round"/>
<path d="M8.66406 3.33333C9.72493 3.33333 10.7423 3.75476 11.4925 4.5049C12.2426 5.25505 12.6641 6.27246 12.6641 7.33333" stroke="#96989C" stroke-linecap="round" stroke-linejoin="round"/>
<path d="M8.66406 6C9.01768 6 9.35682 6.14048 9.60687 6.39052C9.85692 6.64057 9.9974 6.97971 9.9974 7.33333" fill="#96989C"/>
<path d="M8.66406 6C9.01768 6 9.35682 6.14048 9.60687 6.39052C9.85692 6.64057 9.9974 6.97971 9.9974 7.33333" stroke="#96989C" stroke-linecap="round" stroke-linejoin="round"/>
</g>
</svg>
