<svg width="15" height="11" viewBox="0 0 15 11" fill="none" xmlns="http://www.w3.org/2000/svg">
<path d="M1.46229 4.73548C5.22109 3.18327 7.72696 2.15992 8.9799 1.66543C12.5614 0.253586 13.3047 0.00837961 13.7902 7.23824e-05C13.897 -0.00155087 14.1347 0.0234661 14.2898 0.142345C14.4187 0.242605 14.4549 0.378195 14.4731 0.473394C14.4892 0.568497 14.5113 0.785249 14.4932 0.954449C14.2998 2.88707 13.4598 7.57694 13.0328 9.74159C12.8535 10.6575 12.497 10.9646 12.1525 10.9945C11.4032 11.0599 10.8351 10.5255 10.11 10.075C8.97587 9.36977 8.3353 8.93092 7.23344 8.24285C5.96036 7.44765 6.78625 7.01052 7.51142 6.29629C7.70077 6.10932 11.0003 3.26481 11.0627 3.00681C11.0708 2.97454 11.0789 2.85423 11.0023 2.79082C10.9278 2.72723 10.817 2.749 10.7364 2.76619C10.6216 2.79063 8.81069 3.92653 5.29764 6.17368C4.78397 6.50865 4.31866 6.67192 3.89967 6.66333C3.44039 6.65397 2.55407 6.4166 1.89538 6.21379C1.08963 5.96495 0.447047 5.83337 0.503449 5.41075C0.531651 5.19075 0.851935 4.9656 1.46229 4.73548Z" fill="#0898E6"/>
</svg>
