<svg width="11" height="12" viewBox="0 0 11 12" fill="none" xmlns="http://www.w3.org/2000/svg">
<path opacity="0.7" d="M6.80399 2.9394L8.87959 0.863794C9.36465 0.378735 10.1511 0.378735 10.6362 0.863794C11.1213 1.34885 11.1213 2.13535 10.6362 2.62041L8.56061 4.69601L9.68364 10.2842C9.82761 10.9997 8.44082 11.9953 8.07179 11.0488L6.42735 6.82927L4.29284 8.96378C4.39747 10.2113 4.4196 10.6256 3.54519 11.5L2.21598 9.28402L0 7.95481C0.874412 7.08039 1.2887 7.10253 2.53622 7.20716L4.67073 5.07265L0.451844 3.42822C-0.495287 3.0595 0.499942 1.67232 1.21578 1.81637L6.80399 2.9394Z" fill="#96989C"/>
</svg>
