<svg width="13" height="13" viewBox="0 0 13 13" fill="none" xmlns="http://www.w3.org/2000/svg">
<path d="M0.91 0.91C1.72191e-07 1.82867 0 3.29767 0 6.24V6.76C0 9.698 1.72191e-07 11.167 0.91 12.09C1.82867 13 3.29767 13 6.24 13H6.76C9.698 13 11.167 13 12.09 12.09C13 11.1713 13 9.70233 13 6.76V6.24C13 3.302 13 1.833 12.09 0.91C11.1713 1.72191e-07 9.70233 0 6.76 0H6.24C3.302 0 1.833 1.72191e-07 0.91 0.91ZM2.19267 3.95633H3.68333C3.731 6.435 4.823 7.48367 5.68967 7.70033V3.95633H7.08933V6.09267C7.943 6.00167 8.84433 5.02667 9.14767 3.952H10.543C10.4291 4.50827 10.2018 5.03509 9.87528 5.49959C9.54872 5.96408 9.12991 6.35627 8.645 6.65167C9.18626 6.92096 9.66425 7.30198 10.0474 7.76957C10.4306 8.23717 10.7103 8.78071 10.868 9.36433H9.32967C9.00033 8.33733 8.177 7.54 7.08933 7.43167V9.36433H6.916C3.952 9.36433 2.262 7.33633 2.19267 3.95633Z" fill="#595959"/>
</svg>
