<svg width="14" height="14" viewBox="0 0 14 14" fill="none" xmlns="http://www.w3.org/2000/svg">
<path fill-rule="evenodd" clip-rule="evenodd" d="M7.02621 12.4335C6.03954 12.4335 5.07288 12.1669 4.22621 11.6669L4.02621 11.5469L1.94621 12.0935L2.49954 10.0669L2.36621 9.8602C1.81791 8.9849 1.52683 7.97305 1.52621 6.9402C1.52621 3.91353 3.99288 1.44687 7.01954 1.44687C8.48621 1.44687 9.86621 2.0202 10.8995 3.0602C11.4113 3.56944 11.8168 4.17523 12.0926 4.84242C12.3684 5.50961 12.509 6.22492 12.5062 6.94687C12.5195 9.97353 10.0529 12.4335 7.02621 12.4335ZM8.91288 7.78687C9.05954 7.84687 9.87288 8.24687 10.0395 8.32687C10.2062 8.40687 10.3062 8.4402 10.3529 8.51353C10.3995 8.58687 10.3995 8.91353 10.2595 9.3002C10.1262 9.68687 9.46621 10.0402 9.14621 10.0869C8.85954 10.1269 8.49954 10.1469 8.10621 10.0202C7.86621 9.94687 7.55954 9.84687 7.16621 9.67353C5.51288 8.9602 4.42621 7.29353 4.34621 7.1802L4.34491 7.17847C4.26002 7.0653 3.67288 6.28261 3.67288 5.47353C3.67288 4.6602 4.09954 4.2602 4.24621 4.09353C4.39954 3.92687 4.57288 3.88687 4.68621 3.88687H5.00621C5.10621 3.89353 5.24621 3.85353 5.37954 4.17353C5.51288 4.50687 5.84621 5.3202 5.88621 5.4002C5.92621 5.4802 5.95288 5.57353 5.89954 5.68687C5.84621 5.79353 5.81288 5.86687 5.73288 5.9602C5.65288 6.05353 5.55954 6.17353 5.48621 6.24687C5.39954 6.33353 5.31954 6.4202 5.41288 6.58687C5.51288 6.75353 5.83954 7.29353 6.33288 7.73353C6.95954 8.29353 7.49288 8.47353 7.65954 8.55353C7.82621 8.6402 7.92621 8.62687 8.01954 8.51353C8.11288 8.40687 8.42621 8.03353 8.53954 7.86687C8.65288 7.70687 8.75954 7.73353 8.91288 7.78687Z" fill="#595959"/>
<path fill-rule="evenodd" clip-rule="evenodd" d="M9.55788 0.833774C10.3602 1.16684 11.0883 1.65627 11.6995 2.27353C12.9462 3.5202 13.6329 5.1802 13.6329 6.94687C13.6329 10.5869 10.6662 13.5535 7.02621 13.5535C5.91954 13.5535 4.83288 13.2735 3.86621 12.7469L0.366211 13.6669L1.29954 10.2402C0.726211 9.2402 0.419544 8.10687 0.419544 6.9402C0.419544 3.3002 3.38621 0.333532 7.02621 0.333532C7.89493 0.330654 8.75554 0.500704 9.55788 0.833774ZM4.22621 11.6669C5.07288 12.1669 6.03954 12.4335 7.02621 12.4335C10.0529 12.4335 12.5195 9.97353 12.5062 6.94687C12.509 6.22492 12.3684 5.50961 12.0926 4.84242C11.8168 4.17523 11.4113 3.56944 10.8995 3.0602C9.86621 2.0202 8.48621 1.44687 7.01954 1.44687C3.99288 1.44687 1.52621 3.91353 1.52621 6.9402C1.52683 7.97305 1.81791 8.9849 2.36621 9.8602L2.49954 10.0669L1.94621 12.0935L4.02621 11.5469L4.22621 11.6669Z" fill="#595959"/>
</svg>
