<svg width="16" height="16" viewBox="0 0 16 16" fill="none" xmlns="http://www.w3.org/2000/svg">
<g opacity="0.8">
<path d="M8 1.83301C11.4058 1.83301 14.167 4.59424 14.167 8C14.167 11.4058 11.4058 14.167 8 14.167C4.59424 14.167 1.83301 11.4058 1.83301 8C1.83301 4.59424 4.59424 1.83301 8 1.83301ZM8 3.16699C7.53976 3.16699 7.16699 3.53976 7.16699 4V8C7.16699 8.3155 7.34486 8.60389 7.62695 8.74512L10.2939 10.0791C10.7056 10.2848 11.2063 10.1177 11.4121 9.70605C11.6179 9.29441 11.4507 8.79372 11.0391 8.58789L8.83301 7.48438V4C8.83301 3.53976 8.46024 3.16699 8 3.16699Z" fill="#96989C" stroke="#96989C" stroke-width="0.666667"/>
</g>
</svg>
