<svg width="32" height="32" viewBox="0 0 32 32" fill="none" xmlns="http://www.w3.org/2000/svg">
<g clip-path="url(#clip0_1012_9282)">
<path d="M16 1.99994C9.3724 1.99994 4 7.37234 4 13.9999C4 17.3125 5.3422 20.3119 7.513 22.4833C9.6844 24.6559 14.8 27.7999 15.1 31.0999C15.145 31.5947 15.5032 31.9999 16 31.9999C16.4968 31.9999 16.855 31.5947 16.9 31.0999C17.2 27.7999 22.3156 24.6559 24.487 22.4833C26.6578 20.3119 28 17.3125 28 13.9999C28 7.37234 22.6276 1.99994 16 1.99994Z" fill="#4C9EFF"/>
<path d="M15.9969 18.2002C18.3165 18.2002 20.1968 16.3198 20.1968 14.0002C20.1968 11.6806 18.3165 9.80023 15.9969 9.80023C13.6773 9.80023 11.7969 11.6806 11.7969 14.0002C11.7969 16.3198 13.6773 18.2002 15.9969 18.2002Z" fill="white"/>
</g>
<defs>
<clipPath id="clip0_1012_9282">
<rect width="32" height="32" fill="white"/>
</clipPath>
</defs>
</svg>
